<?xml version="1.0" standalone="no"?>
<!DOCTYPE svg PUBLIC "-//W3C//DTD SVG 20010904//EN"
 "http://www.w3.org/TR/2001/REC-SVG-20010904/DTD/svg10.dtd">
<svg version="1.0" xmlns="http://www.w3.org/2000/svg"
 width="1675.000000pt" height="410.000000pt" viewBox="0 0 1675.000000 410.000000"
 preserveAspectRatio="xMidYMid meet">
<metadata>
Created by potrace 1.16, written by Peter Selinger 2001-2019
</metadata>
<g transform="translate(0.000000,410.000000) scale(0.100000,-0.100000)"
fill="#000000" stroke="none">
<path d="M50 3570 l0 -480 1100 0 1101 0 49 -46 c28 -26 50 -43 50 -38 0 5 4
15 9 22 6 11 35 2 132 -43 360 -166 901 -453 1154 -612 l80 -50 3 -1137 2
-1136 1380 0 1380 0 0 1143 0 1143 148 86 c290 170 699 370 1112 545 172 73
175 74 189 54 13 -20 15 -20 66 24 l52 45 1277 0 1276 0 0 480 0 480 -1277 -2
-1278 -3 -3 -466 -2 -467 -70 -7 c-66 -7 -70 -8 -64 -29 5 -20 -6 -27 -123
-76 -394 -164 -886 -404 -1165 -568 l-138 -80 0 29 0 29 -333 2 -333 3 167
275 c92 151 171 274 176 273 4 -1 15 -4 24 -8 13 -5 18 7 28 65 l13 70 799 0
799 0 -2 478 -3 477 -1317 3 -1318 2 0 -480 0 -480 511 0 512 0 -52 -42 c-50
-41 -51 -43 -32 -58 19 -15 14 -24 -152 -297 l-172 -283 -695 0 -695 0 -168
281 c-158 263 -168 281 -153 298 16 17 14 21 -31 59 l-48 41 473 1 472 0 0
480 0 480 -1240 0 -1240 0 0 -480 0 -480 754 0 c630 0 755 -2 759 -14 3 -7 8
-34 12 -58 9 -62 19 -76 39 -58 9 7 18 11 20 9 1 -2 78 -129 169 -281 l166
-278 -334 0 -334 0 -3 -35 -3 -35 -125 77 c-258 157 -790 437 -1138 597 -75
35 -83 41 -78 62 6 22 3 23 -64 30 l-70 7 -2 466 -3 466 -1097 3 -1098 2 0
-480z m2180 315 l0 -145 -1085 0 -1085 0 0 145 0 145 1085 0 1085 0 0 -145z
m2720 0 l0 -145 -1230 0 -1230 0 0 145 0 145 1230 0 1230 0 0 -145z m2860 0
l0 -145 -1305 0 -1305 0 0 145 0 145 1305 0 1305 0 0 -145z m2790 0 l0 -145
-1265 0 -1265 0 0 145 0 145 1265 0 1265 0 0 -145z m-8370 -315 l0 -160 -1085
0 -1085 0 0 160 0 160 1085 0 1085 0 0 -160z m2718 -2 l3 -158 -1231 0 -1230
0 0 153 c0 85 3 157 7 160 3 4 556 6 1227 5 l1221 -3 3 -157z m2862 2 l0 -160
-1305 0 -1305 0 0 160 0 160 1305 0 1305 0 0 -160z m2790 0 l0 -160 -1265 0
-1265 0 0 160 0 160 1265 0 1265 0 0 -160z m-8370 -320 l0 -150 -1085 0 -1085
0 0 150 0 150 1085 0 1085 0 0 -150z m2715 0 l0 -145 -1225 0 -1225 0 -3 134
c-1 74 0 141 2 148 4 11 230 13 1228 11 l1223 -3 0 -145z m2865 0 l0 -150
-1305 0 -1305 0 0 150 0 150 1305 0 1305 0 0 -150z m2790 0 l0 -150 -1265 0
-1265 0 0 150 0 150 1265 0 1265 0 0 -150z m-8232 -165 c3 -3 -15 -44 -24 -54
-4 -5 -74 50 -74 59 0 7 90 2 98 -5z m5627 -29 c-41 -35 -46 -34 -59 12 -7 21
-5 22 46 22 l53 0 -40 -34z m-3916 -40 c10 -12 7 -17 -18 -30 -33 -18 -32 -19
-46 53 l-7 34 29 -21 c16 -12 35 -28 42 -36z m2126 7 c-4 -27 -8 -50 -10 -51
-2 -2 -18 4 -35 14 l-30 19 37 32 c21 18 40 32 42 33 2 0 0 -21 -4 -47z m265
-773 l0 -150 -1365 0 -1365 0 0 150 0 150 1365 0 1365 0 0 -150z m0 -320 l0
-160 -1365 0 -1365 0 0 160 0 160 1365 0 1365 0 0 -160z m0 -1015 l0 -845
-1365 0 -1365 0 0 845 0 845 1365 0 1365 0 0 -845z"/>
<path d="M299 3953 c-24 -67 -33 -89 -42 -100 -7 -10 -3 -13 14 -13 15 0 19 3
12 8 -20 13 2 34 33 30 20 -2 29 -8 28 -20 -1 -14 8 -17 50 -16 75 0 97 27 40
48 -25 10 -33 30 -11 30 7 0 19 -6 26 -12 11 -11 13 -10 9 2 -7 21 -62 20 -66
-1 -2 -11 8 -20 27 -27 17 -6 31 -16 31 -21 0 -15 -33 -14 -48 1 -9 9 -12 9
-12 0 0 -31 -18 -6 -39 53 -13 36 -27 65 -32 65 -5 0 -14 -12 -20 -27z m19
-61 c-28 -5 -31 1 -16 33 l12 28 12 -29 c11 -26 10 -29 -8 -32z"/>
<path d="M788 3974 c7 -4 12 -27 12 -64 0 -37 -5 -60 -12 -63 -7 -3 3 -5 22
-5 19 0 29 2 23 5 -7 2 -13 15 -13 28 0 18 6 24 26 27 35 4 53 31 38 56 -8 12
-26 18 -60 19 -27 1 -43 0 -36 -3z m77 -34 c0 -18 -6 -26 -22 -28 -20 -3 -23
1 -23 28 0 27 3 31 23 28 16 -2 22 -10 22 -28z"/>
<path d="M915 3910 c0 -68 1 -70 25 -69 14 0 19 3 13 6 -9 3 -13 27 -13 69 0
45 -4 64 -12 64 -9 0 -13 -21 -13 -70z"/>
<path d="M1398 3973 c7 -3 12 -26 12 -63 0 -37 -5 -60 -12 -63 -7 -3 8 -6 35
-6 56 -1 87 23 87 69 0 46 -31 70 -87 69 -27 0 -42 -3 -35 -6z m84 -20 c35
-31 12 -103 -34 -103 -15 0 -18 8 -18 60 0 65 14 77 52 43z"/>
<path d="M1220 3960 c0 -5 5 -10 10 -10 6 0 10 5 10 10 0 6 -4 10 -10 10 -5 0
-10 -4 -10 -10z"/>
<path d="M708 3943 c-2 -10 -1 -36 2 -58 4 -31 9 -40 24 -40 11 0 20 6 22 13
1 7 0 8 -3 2 -10 -21 -23 -8 -23 24 0 24 5 36 18 39 16 4 16 5 0 6 -10 0 -18
8 -18 16 0 21 -17 19 -22 -2z"/>
<path d="M497 3924 c-15 -15 -6 -32 23 -43 17 -5 30 -15 30 -20 0 -15 -33 -14
-49 2 -11 10 -13 9 -9 -3 6 -19 45 -25 63 -10 18 15 11 28 -21 40 -25 10 -33
30 -11 30 7 0 19 -6 26 -12 11 -11 13 -10 9 2 -5 16 -49 26 -61 14z"/>
<path d="M602 3918 c-15 -15 -15 -51 0 -66 17 -17 53 -15 69 5 13 15 12 15 -7
3 -22 -14 -54 -8 -54 10 0 5 16 10 35 10 22 0 35 5 35 13 0 19 -21 37 -45 37
-12 0 -26 -5 -33 -12z m56 -15 c2 -8 -6 -13 -22 -13 -25 0 -33 10 -19 24 10
10 36 3 41 -11z"/>
<path d="M979 3888 l6 -43 50 -2 c28 0 44 1 38 4 -8 3 -13 22 -13 44 0 24 -5
39 -12 39 -8 0 -13 -14 -13 -37 0 -28 -5 -38 -17 -41 -15 -3 -18 4 -18 37 0
27 -4 41 -13 41 -10 0 -12 -11 -8 -42z"/>
<path d="M1101 3917 c-29 -29 0 -84 39 -74 13 3 20 0 20 -9 0 -21 -28 -28 -47
-13 -14 12 -16 12 -11 -1 6 -19 45 -25 64 -10 8 8 14 31 14 60 0 30 5 50 13
53 6 2 -9 5 -34 5 -26 0 -52 -5 -58 -11z m54 -32 c0 -23 -4 -30 -20 -30 -21 0
-31 25 -21 51 11 28 41 12 41 -21z"/>
<path d="M1215 3885 c0 -42 2 -45 25 -44 14 0 19 3 13 6 -8 2 -13 22 -13 44 0
25 -5 39 -12 39 -9 0 -13 -16 -13 -45z"/>
<path d="M1275 3884 c0 -40 2 -44 25 -44 17 0 21 3 12 9 -20 12 -11 65 12 69
16 3 18 -1 14 -37 -3 -38 -2 -41 22 -41 15 0 20 3 13 8 -6 4 -13 23 -15 42 -3
33 -5 35 -43 37 l-40 2 0 -45z"/>
<path d="M1549 3888 l6 -43 50 -2 c28 0 44 1 38 4 -8 3 -13 22 -13 44 0 24 -5
39 -12 39 -8 0 -13 -14 -13 -37 0 -28 -5 -38 -17 -41 -15 -3 -18 4 -18 37 0
27 -4 41 -13 41 -10 0 -12 -11 -8 -42z"/>
<path d="M1665 3884 c0 -40 2 -44 25 -44 17 0 21 3 12 9 -20 12 -11 65 12 69
16 3 18 -1 14 -37 -3 -32 0 -41 12 -41 11 0 15 11 15 37 0 29 4 38 19 41 16 3
18 -1 14 -37 -3 -38 -2 -41 22 -41 15 0 20 3 13 8 -6 4 -13 23 -15 42 l-3 35
-70 1 -70 2 0 -44z"/>
<path d="M1845 3884 c0 -40 2 -44 25 -44 17 0 21 3 12 9 -20 12 -11 65 12 69
16 3 18 -1 14 -37 -3 -32 0 -41 12 -41 11 0 15 11 15 37 0 29 4 38 19 41 16 3
18 -1 14 -37 -3 -38 -2 -41 22 -41 15 0 20 3 13 8 -6 4 -13 23 -15 42 l-3 35
-70 1 -70 2 0 -44z"/>
<path d="M2036 3884 c23 -46 22 -79 -2 -70 -8 3 -14 1 -14 -4 0 -6 7 -10 16
-10 9 0 26 23 41 58 15 31 31 60 37 64 6 4 1 8 -12 8 -13 0 -20 -4 -17 -10 3
-5 0 -22 -8 -36 l-14 -27 -11 31 c-6 17 -8 33 -5 36 4 3 -3 6 -14 6 -20 0 -20
-1 3 -46z"/>
<path d="M183 3803 c15 -2 39 -2 55 0 15 2 2 4 -28 4 -30 0 -43 -2 -27 -4z"/>
<path d="M2713 3973 c-7 -2 -13 -16 -13 -29 0 -18 9 -28 38 -41 20 -10 37 -25
37 -33 0 -23 -46 -25 -63 -3 -13 17 -14 17 -10 -2 4 -27 59 -33 82 -9 23 22
16 35 -28 59 -21 11 -38 23 -37 28 0 4 1 12 1 17 0 16 32 12 52 -7 16 -14 18
-14 18 -1 0 24 -43 35 -77 21z"/>
<path d="M3498 3974 c7 -4 12 -27 12 -64 0 -37 -5 -60 -12 -63 -7 -3 3 -5 22
-5 19 0 29 2 23 5 -7 2 -13 15 -13 28 0 18 6 24 26 27 35 4 53 31 38 56 -8 12
-26 18 -60 19 -27 1 -43 0 -36 -3z m77 -34 c0 -18 -6 -26 -22 -28 -20 -3 -23
1 -23 28 0 27 3 31 23 28 16 -2 22 -10 22 -28z"/>
<path d="M3625 3910 c0 -68 1 -70 25 -69 14 0 19 3 13 6 -9 3 -13 27 -13 69 0
45 -4 64 -12 64 -9 0 -13 -21 -13 -70z"/>
<path d="M4108 3973 c7 -3 12 -26 12 -63 0 -37 -5 -60 -12 -63 -7 -3 8 -6 35
-6 56 -1 87 23 87 69 0 46 -31 70 -87 69 -27 0 -42 -3 -35 -6z m84 -20 c35
-31 12 -103 -34 -103 -15 0 -18 8 -18 60 0 65 14 77 52 43z"/>
<path d="M3100 3960 c0 -5 5 -10 10 -10 6 0 10 5 10 10 0 6 -4 10 -10 10 -5 0
-10 -4 -10 -10z"/>
<path d="M3930 3960 c0 -5 5 -10 10 -10 6 0 10 5 10 10 0 6 -4 10 -10 10 -5 0
-10 -4 -10 -10z"/>
<path d="M2938 3943 c-2 -10 -1 -36 2 -58 4 -31 9 -40 24 -40 11 0 20 6 22 13
1 7 0 8 -3 2 -10 -21 -23 -8 -23 24 0 24 5 36 18 39 16 4 16 5 0 6 -10 0 -18
8 -18 16 0 21 -17 19 -22 -2z"/>
<path d="M3018 3943 c-2 -10 -1 -36 2 -58 4 -31 9 -40 24 -40 11 0 20 6 22 13
1 7 0 8 -3 2 -10 -21 -23 -8 -23 24 0 24 5 36 18 39 16 4 16 5 0 6 -10 0 -18
8 -18 16 0 21 -17 19 -22 -2z"/>
<path d="M2832 3918 c-7 -7 -12 -21 -12 -33 0 -43 54 -62 81 -28 13 15 12 15
-7 3 -22 -14 -54 -8 -54 10 0 5 16 10 35 10 22 0 35 5 35 13 0 19 -21 37 -45
37 -12 0 -26 -5 -33 -12z m56 -15 c2 -8 -6 -13 -22 -13 -25 0 -33 10 -19 24
10 10 36 3 41 -11z"/>
<path d="M3095 3885 c0 -42 2 -45 25 -44 14 0 19 3 13 6 -8 2 -13 22 -13 44 0
25 -5 39 -12 39 -9 0 -13 -16 -13 -45z"/>
<path d="M3155 3884 c0 -40 2 -44 25 -44 17 0 21 3 12 9 -20 12 -11 65 12 69
16 3 18 -1 14 -37 -3 -38 -2 -41 22 -41 15 0 20 3 13 8 -6 4 -13 23 -15 42 -3
33 -5 35 -43 37 l-40 2 0 -45z"/>
<path d="M3281 3917 c-29 -29 0 -84 39 -74 13 3 20 0 20 -9 0 -21 -28 -28 -47
-13 -14 12 -16 12 -11 -1 6 -19 45 -25 64 -10 8 8 14 31 14 60 0 30 5 50 13
53 6 2 -9 5 -34 5 -26 0 -52 -5 -58 -11z m54 -32 c0 -23 -4 -30 -20 -30 -21 0
-31 25 -21 51 11 28 41 12 41 -21z"/>
<path d="M3397 3924 c-15 -15 -6 -32 23 -43 17 -5 30 -15 30 -20 0 -15 -33
-14 -49 2 -11 10 -13 9 -9 -3 6 -19 45 -25 63 -10 18 15 11 28 -21 40 -25 10
-33 30 -11 30 7 0 19 -6 26 -12 11 -11 13 -10 9 2 -5 16 -49 26 -61 14z"/>
<path d="M3689 3888 l6 -43 50 -2 c28 0 44 1 38 4 -8 3 -13 22 -13 44 0 24 -5
39 -12 39 -8 0 -13 -14 -13 -37 0 -28 -5 -38 -17 -41 -15 -3 -18 4 -18 37 0
27 -4 41 -13 41 -10 0 -12 -11 -8 -42z"/>
<path d="M3811 3917 c-29 -29 0 -84 39 -74 13 3 20 0 20 -9 0 -21 -28 -28 -47
-13 -14 12 -16 12 -11 -1 6 -19 45 -25 64 -10 8 8 14 31 14 60 0 30 5 50 13
53 6 2 -9 5 -34 5 -26 0 -52 -5 -58 -11z m54 -32 c0 -23 -4 -30 -20 -30 -21 0
-31 25 -21 51 11 28 41 12 41 -21z"/>
<path d="M3925 3885 c0 -42 2 -45 25 -44 14 0 19 3 13 6 -8 2 -13 22 -13 44 0
25 -5 39 -12 39 -9 0 -13 -16 -13 -45z"/>
<path d="M3985 3884 c0 -40 2 -44 25 -44 17 0 21 3 12 9 -20 12 -11 65 12 69
16 3 18 -1 14 -37 -3 -38 -2 -41 22 -41 15 0 20 3 13 8 -6 4 -13 23 -15 42 -3
33 -5 35 -43 37 l-40 2 0 -45z"/>
<path d="M4259 3888 l6 -43 50 -2 c28 0 44 1 38 4 -8 3 -13 22 -13 44 0 24 -5
39 -12 39 -8 0 -13 -14 -13 -37 0 -28 -5 -38 -17 -41 -15 -3 -18 4 -18 37 0
27 -4 41 -13 41 -10 0 -12 -11 -8 -42z"/>
<path d="M4375 3884 c0 -40 2 -44 25 -44 17 0 21 3 12 9 -20 12 -11 65 12 69
16 3 18 -1 14 -37 -3 -32 0 -41 12 -41 11 0 15 11 15 37 0 29 4 38 19 41 16 3
18 -1 14 -37 -3 -38 -2 -41 22 -41 15 0 20 3 13 8 -6 4 -13 23 -15 42 l-3 35
-70 1 -70 2 0 -44z"/>
<path d="M4555 3884 c0 -40 2 -44 25 -44 17 0 21 3 12 9 -20 12 -11 65 12 69
16 3 18 -1 14 -37 -3 -32 0 -41 12 -41 11 0 15 11 15 37 0 29 4 38 19 41 16 3
18 -1 14 -37 -3 -38 -2 -41 22 -41 15 0 20 3 13 8 -6 4 -13 23 -15 42 l-3 35
-70 1 -70 2 0 -44z"/>
<path d="M4746 3884 c23 -46 22 -79 -2 -70 -8 3 -14 1 -14 -4 0 -6 7 -10 16
-10 9 0 26 23 41 58 15 31 31 60 37 64 6 4 1 8 -12 8 -13 0 -20 -4 -17 -10 3
-5 0 -22 -8 -36 l-14 -27 -11 31 c-6 17 -8 33 -5 36 4 3 -3 6 -14 6 -20 0 -20
-1 3 -46z"/>
<path d="M2613 3803 c15 -2 39 -2 55 0 15 2 2 4 -28 4 -30 0 -43 -2 -27 -4z"/>
<path d="M5423 3973 c-7 -2 -13 -16 -13 -29 0 -18 9 -28 38 -41 20 -10 37 -25
37 -33 0 -23 -46 -25 -63 -3 -13 17 -14 17 -10 -2 4 -27 59 -33 82 -9 23 22
16 35 -28 59 -21 11 -38 23 -37 28 0 4 1 12 1 17 0 16 32 12 52 -7 16 -14 18
-14 18 -1 0 24 -43 35 -77 21z"/>
<path d="M5895 3910 c0 -68 1 -70 25 -69 14 0 19 3 13 6 -9 3 -13 27 -13 69 0
45 -4 64 -12 64 -9 0 -13 -21 -13 -70z"/>
<path d="M6099 3953 c-24 -67 -33 -89 -42 -100 -7 -10 -3 -13 14 -13 15 0 19
3 12 8 -20 13 2 34 33 30 20 -2 29 -8 28 -20 -1 -13 6 -18 25 -18 14 0 21 4
15 8 -6 4 -22 35 -34 70 -12 34 -27 62 -32 62 -4 0 -13 -12 -19 -27z m19 -61
c-28 -5 -31 1 -16 33 l12 28 12 -29 c11 -26 10 -29 -8 -32z"/>
<path d="M6378 3974 c7 -4 12 -27 12 -64 0 -37 -5 -60 -12 -63 -7 -3 3 -5 22
-5 19 0 29 2 23 5 -7 2 -13 15 -13 28 0 18 6 24 26 27 35 4 53 31 38 56 -8 12
-26 18 -60 19 -27 1 -43 0 -36 -3z m77 -34 c0 -18 -6 -26 -22 -28 -20 -3 -23
1 -23 28 0 27 3 31 23 28 16 -2 22 -10 22 -28z"/>
<path d="M6505 3910 c0 -68 1 -70 25 -69 14 0 19 3 13 6 -9 3 -13 27 -13 69 0
45 -4 64 -12 64 -9 0 -13 -21 -13 -70z"/>
<path d="M6988 3973 c7 -3 12 -26 12 -63 0 -37 -5 -60 -12 -63 -7 -3 8 -6 35
-6 56 -1 87 23 87 69 0 46 -31 70 -87 69 -27 0 -42 -3 -35 -6z m84 -20 c35
-31 12 -103 -34 -103 -15 0 -18 8 -18 60 0 65 14 77 52 43z"/>
<path d="M5540 3960 c0 -5 5 -10 10 -10 6 0 10 5 10 10 0 6 -4 10 -10 10 -5 0
-10 -4 -10 -10z"/>
<path d="M6320 3960 c0 -5 5 -10 10 -10 6 0 10 5 10 10 0 6 -4 10 -10 10 -5 0
-10 -4 -10 -10z"/>
<path d="M6810 3960 c0 -5 5 -10 10 -10 6 0 10 5 10 10 0 6 -4 10 -10 10 -5 0
-10 -4 -10 -10z"/>
<path d="M5535 3885 c0 -42 2 -45 25 -44 14 0 19 3 13 6 -8 2 -13 22 -13 44 0
25 -5 39 -12 39 -9 0 -13 -16 -13 -45z"/>
<path d="M5595 3884 c0 -40 2 -44 25 -44 17 0 21 3 12 9 -20 12 -11 65 12 69
16 3 18 -1 14 -37 -3 -32 0 -41 12 -41 11 0 15 11 15 37 0 29 4 38 19 41 16 3
18 -1 14 -37 -3 -38 -2 -41 22 -41 15 0 20 3 13 8 -6 4 -13 23 -15 42 l-3 35
-70 1 -70 2 0 -44z"/>
<path d="M5775 3864 c0 -62 1 -64 25 -63 14 0 19 3 13 6 -7 2 -13 13 -13 23 0
13 5 17 20 13 26 -7 50 13 50 42 0 30 -18 43 -60 43 l-35 0 0 -64z m70 21 c0
-23 -4 -30 -20 -30 -21 0 -31 25 -21 51 11 28 41 12 41 -21z"/>
<path d="M5962 3918 c-7 -7 -12 -21 -12 -33 0 -43 54 -62 81 -28 13 15 12 15
-7 3 -22 -14 -54 -8 -54 10 0 5 16 10 35 10 22 0 35 5 35 13 0 19 -21 37 -45
37 -12 0 -26 -5 -33 -12z m56 -15 c2 -8 -6 -13 -22 -13 -25 0 -33 10 -19 24
10 10 36 3 41 -11z"/>
<path d="M6195 3864 c0 -62 1 -64 25 -63 14 0 19 3 13 6 -7 2 -13 13 -13 23 0
13 5 17 20 13 26 -7 50 13 50 42 0 30 -18 43 -60 43 l-35 0 0 -64z m70 21 c0
-23 -4 -30 -20 -30 -21 0 -31 25 -21 51 11 28 41 12 41 -21z"/>
<path d="M6315 3885 c0 -42 2 -45 25 -44 14 0 19 3 13 6 -8 2 -13 22 -13 44 0
25 -5 39 -12 39 -9 0 -13 -16 -13 -45z"/>
<path d="M6569 3888 l6 -43 50 -2 c28 0 44 1 38 4 -8 3 -13 22 -13 44 0 24 -5
39 -12 39 -8 0 -13 -14 -13 -37 0 -28 -5 -38 -17 -41 -15 -3 -18 4 -18 37 0
27 -4 41 -13 41 -10 0 -12 -11 -8 -42z"/>
<path d="M6691 3917 c-29 -29 0 -84 39 -74 13 3 20 0 20 -9 0 -21 -28 -28 -47
-13 -14 12 -16 12 -11 -1 6 -19 45 -25 64 -10 8 8 14 31 14 60 0 30 5 50 13
53 6 2 -9 5 -34 5 -26 0 -52 -5 -58 -11z m54 -32 c0 -23 -4 -30 -20 -30 -21 0
-31 25 -21 51 11 28 41 12 41 -21z"/>
<path d="M6805 3885 c0 -42 2 -45 25 -44 14 0 19 3 13 6 -8 2 -13 22 -13 44 0
25 -5 39 -12 39 -9 0 -13 -16 -13 -45z"/>
<path d="M6865 3884 c0 -40 2 -44 25 -44 17 0 21 3 12 9 -20 12 -11 65 12 69
16 3 18 -1 14 -37 -3 -38 -2 -41 22 -41 15 0 20 3 13 8 -6 4 -13 23 -15 42 -3
33 -5 35 -43 37 l-40 2 0 -45z"/>
<path d="M7139 3888 l6 -43 50 -2 c28 0 44 1 38 4 -8 3 -13 22 -13 44 0 24 -5
39 -12 39 -8 0 -13 -14 -13 -37 0 -28 -5 -38 -17 -41 -15 -3 -18 4 -18 37 0
27 -4 41 -13 41 -10 0 -12 -11 -8 -42z"/>
<path d="M7255 3884 c0 -40 2 -44 25 -44 17 0 21 3 12 9 -20 12 -11 65 12 69
16 3 18 -1 14 -37 -3 -32 0 -41 12 -41 11 0 15 11 15 37 0 29 4 38 19 41 16 3
18 -1 14 -37 -3 -38 -2 -41 22 -41 15 0 20 3 13 8 -6 4 -13 23 -15 42 l-3 35
-70 1 -70 2 0 -44z"/>
<path d="M7435 3884 c0 -40 2 -44 25 -44 17 0 21 3 12 9 -20 12 -11 65 12 69
16 3 18 -1 14 -37 -3 -32 0 -41 12 -41 11 0 15 11 15 37 0 29 4 38 19 41 16 3
18 -1 14 -37 -3 -38 -2 -41 22 -41 15 0 20 3 13 8 -6 4 -13 23 -15 42 l-3 35
-70 1 -70 2 0 -44z"/>
<path d="M7626 3884 c23 -46 22 -79 -2 -70 -8 3 -14 1 -14 -4 0 -6 7 -10 16
-10 9 0 26 23 41 58 15 31 31 60 37 64 6 4 1 8 -12 8 -13 0 -20 -4 -17 -10 3
-5 0 -22 -8 -36 l-14 -27 -11 31 c-6 17 -8 33 -5 36 4 3 -3 6 -14 6 -20 0 -20
-1 3 -46z"/>
<path d="M5323 3803 c15 -2 39 -2 55 0 15 2 2 4 -28 4 -30 0 -43 -2 -27 -4z"/>
<path d="M8261 3963 c0 -11 3 -13 6 -5 2 6 14 12 25 12 18 0 19 -6 16 -65 -3
-64 -3 -65 22 -64 14 0 19 3 13 6 -9 3 -13 26 -13 64 0 51 2 59 19 59 11 0 22
-6 24 -12 3 -8 6 -6 6 5 1 14 -8 17 -59 17 -51 0 -60 -3 -59 -17z"/>
<path d="M8795 3910 c0 -68 1 -70 25 -69 14 0 19 3 13 6 -9 3 -13 27 -13 69 0
45 -4 64 -12 64 -9 0 -13 -21 -13 -70z"/>
<path d="M9158 3974 c7 -4 12 -27 12 -64 0 -37 -5 -60 -12 -63 -7 -3 3 -5 22
-5 19 0 29 2 23 5 -7 2 -13 15 -13 28 0 18 6 24 26 27 35 4 53 31 38 56 -8 12
-26 18 -60 19 -27 1 -43 0 -36 -3z m77 -34 c0 -18 -6 -26 -22 -28 -20 -3 -23
1 -23 28 0 27 3 31 23 28 16 -2 22 -10 22 -28z"/>
<path d="M9285 3910 c0 -68 1 -70 25 -69 14 0 19 3 13 6 -9 3 -13 27 -13 69 0
45 -4 64 -12 64 -9 0 -13 -21 -13 -70z"/>
<path d="M9768 3973 c7 -3 12 -26 12 -63 0 -37 -5 -60 -12 -63 -7 -3 8 -6 35
-6 56 -1 87 23 87 69 0 46 -31 70 -87 69 -27 0 -42 -3 -35 -6z m84 -20 c35
-31 12 -103 -34 -103 -15 0 -18 8 -18 60 0 65 14 77 52 43z"/>
<path d="M9590 3960 c0 -5 5 -10 10 -10 6 0 10 5 10 10 0 6 -4 10 -10 10 -5 0
-10 -4 -10 -10z"/>
<path d="M8968 3943 c-2 -10 -1 -36 2 -58 4 -31 9 -40 24 -40 11 0 20 6 22 13
1 7 0 8 -3 2 -10 -21 -23 -8 -23 24 0 24 5 36 18 39 16 4 16 5 0 6 -10 0 -18
8 -18 16 0 21 -17 19 -22 -2z"/>
<path d="M8392 3918 c-7 -7 -12 -21 -12 -33 0 -43 54 -62 81 -28 13 15 12 15
-7 3 -22 -14 -54 -8 -54 10 0 5 16 10 35 10 22 0 35 5 35 13 0 19 -21 37 -45
37 -12 0 -26 -5 -33 -12z m56 -15 c2 -8 -6 -13 -22 -13 -25 0 -33 10 -19 24
10 10 36 3 41 -11z"/>
<path d="M8495 3884 c0 -40 2 -44 25 -44 17 0 21 3 12 9 -20 12 -11 65 12 69
16 3 18 -1 14 -37 -3 -32 0 -41 12 -41 11 0 15 11 15 37 0 29 4 38 19 41 16 3
18 -1 14 -37 -3 -38 -2 -41 22 -41 15 0 20 3 13 8 -6 4 -13 23 -15 42 l-3 35
-70 1 -70 2 0 -44z"/>
<path d="M8675 3864 c0 -62 1 -64 25 -63 14 0 19 3 13 6 -7 2 -13 13 -13 23 0
13 5 17 20 13 26 -7 50 13 50 42 0 30 -18 43 -60 43 l-35 0 0 -64z m70 21 c0
-23 -4 -30 -20 -30 -21 0 -31 25 -21 51 11 28 41 12 41 -21z"/>
<path d="M8865 3919 c-4 -6 -4 -13 -1 -16 3 -4 6 -1 6 5 0 17 37 15 43 -2 4
-11 -3 -16 -26 -18 -24 -2 -32 -8 -32 -23 0 -17 7 -20 50 -22 28 -1 44 0 38 3
-7 3 -13 21 -13 39 0 21 -6 35 -16 39 -23 9 -42 7 -49 -5z m53 -51 c-7 -20
-48 -23 -48 -4 0 11 9 16 26 16 16 0 24 -5 22 -12z"/>
<path d="M9052 3918 c-7 -7 -12 -21 -12 -33 0 -43 54 -62 81 -28 13 15 12 15
-7 3 -22 -14 -54 -8 -54 10 0 5 16 10 35 10 22 0 35 5 35 13 0 19 -21 37 -45
37 -12 0 -26 -5 -33 -12z m56 -15 c2 -8 -6 -13 -22 -13 -25 0 -33 10 -19 24
10 10 36 3 41 -11z"/>
<path d="M9349 3888 l6 -43 50 -2 c28 0 44 1 38 4 -8 3 -13 22 -13 44 0 24 -5
39 -12 39 -8 0 -13 -14 -13 -37 0 -28 -5 -38 -17 -41 -15 -3 -18 4 -18 37 0
27 -4 41 -13 41 -10 0 -12 -11 -8 -42z"/>
<path d="M9471 3917 c-29 -29 0 -84 39 -74 13 3 20 0 20 -9 0 -21 -28 -28 -47
-13 -14 12 -16 12 -11 -1 6 -19 45 -25 64 -10 8 8 14 31 14 60 0 30 5 50 13
53 6 2 -9 5 -34 5 -26 0 -52 -5 -58 -11z m54 -32 c0 -23 -4 -30 -20 -30 -21 0
-31 25 -21 51 11 28 41 12 41 -21z"/>
<path d="M9585 3885 c0 -42 2 -45 25 -44 14 0 19 3 13 6 -8 2 -13 22 -13 44 0
25 -5 39 -12 39 -9 0 -13 -16 -13 -45z"/>
<path d="M9645 3884 c0 -40 2 -44 25 -44 17 0 21 3 12 9 -20 12 -11 65 12 69
16 3 18 -1 14 -37 -3 -38 -2 -41 22 -41 15 0 20 3 13 8 -6 4 -13 23 -15 42 -3
33 -5 35 -43 37 l-40 2 0 -45z"/>
<path d="M9919 3888 l6 -43 50 -2 c28 0 44 1 38 4 -8 3 -13 22 -13 44 0 24 -5
39 -12 39 -8 0 -13 -14 -13 -37 0 -28 -5 -38 -17 -41 -15 -3 -18 4 -18 37 0
27 -4 41 -13 41 -10 0 -12 -11 -8 -42z"/>
<path d="M10035 3884 c0 -40 2 -44 25 -44 17 0 21 3 12 9 -20 12 -11 65 12 69
16 3 18 -1 14 -37 -3 -32 0 -41 12 -41 11 0 15 11 15 37 0 29 4 38 19 41 16 3
18 -1 14 -37 -3 -38 -2 -41 22 -41 15 0 20 3 13 8 -6 4 -13 23 -15 42 l-3 35
-70 1 -70 2 0 -44z"/>
<path d="M10215 3884 c0 -40 2 -44 25 -44 17 0 21 3 12 9 -20 12 -11 65 12 69
16 3 18 -1 14 -37 -3 -32 0 -41 12 -41 11 0 15 11 15 37 0 29 4 38 19 41 16 3
18 -1 14 -37 -3 -38 -2 -41 22 -41 15 0 20 3 13 8 -6 4 -13 23 -15 42 l-3 35
-70 1 -70 2 0 -44z"/>
<path d="M10406 3884 c23 -46 22 -79 -2 -70 -8 3 -14 1 -14 -4 0 -6 7 -10 16
-10 9 0 26 23 41 58 15 31 31 60 37 64 6 4 1 8 -12 8 -13 0 -20 -4 -17 -10 3
-5 0 -22 -8 -36 l-14 -27 -11 31 c-6 17 -8 33 -5 36 4 3 -3 6 -14 6 -20 0 -20
-1 3 -46z"/>
<path d="M8193 3803 c15 -2 39 -2 55 0 15 2 2 4 -28 4 -30 0 -43 -2 -27 -4z"/>
<path d="M4020 2318 c-11 -12 -20 -34 -20 -48 0 -33 34 -70 63 -70 41 0 67 27
67 70 0 64 -67 94 -110 48z m78 0 c16 -16 16 -80 0 -96 -30 -30 -78 0 -78 48
0 48 48 78 78 48z"/>
<path d="M4918 2333 c7 -3 12 -24 12 -57 0 -58 12 -76 50 -76 38 0 50 18 50
76 0 33 5 54 13 57 6 3 -1 6 -18 6 -20 0 -25 -2 -17 -8 9 -5 12 -25 10 -62 -3
-53 -4 -54 -33 -54 l-30 0 0 63 c0 60 -1 62 -25 61 -14 0 -19 -3 -12 -6z"/>
<path d="M5628 2334 c7 -4 12 -27 12 -64 0 -37 -5 -60 -12 -63 -7 -3 3 -5 22
-5 19 0 29 2 23 5 -7 2 -13 15 -13 28 0 18 6 24 26 27 35 4 53 31 38 56 -8 12
-26 18 -60 19 -27 1 -43 0 -36 -3z m77 -34 c0 -18 -6 -26 -22 -28 -20 -3 -23
1 -23 28 0 27 3 31 23 28 16 -2 22 -10 22 -28z"/>
<path d="M5755 2270 c0 -68 1 -70 25 -69 14 0 19 3 13 6 -9 3 -13 27 -13 69 0
45 -4 64 -12 64 -9 0 -13 -21 -13 -70z"/>
<path d="M4660 2320 c0 -5 5 -10 10 -10 6 0 10 5 10 10 0 6 -4 10 -10 10 -5 0
-10 -4 -10 -10z"/>
<path d="M5280 2320 c0 -5 5 -10 10 -10 6 0 10 5 10 10 0 6 -4 10 -10 10 -5 0
-10 -4 -10 -10z"/>
<path d="M6060 2320 c0 -5 5 -10 10 -10 6 0 10 5 10 10 0 6 -4 10 -10 10 -5 0
-10 -4 -10 -10z"/>
<path d="M4258 2303 c-2 -10 -1 -36 2 -58 4 -31 9 -40 24 -40 11 0 20 6 22 13
1 7 0 8 -3 2 -10 -21 -23 -8 -23 24 0 24 5 36 18 39 16 4 16 5 0 6 -10 0 -18
8 -18 16 0 21 -17 19 -22 -2z"/>
<path d="M4838 2303 c-2 -10 -1 -36 2 -58 4 -31 9 -40 24 -40 11 0 20 6 22 13
1 7 0 8 -3 2 -10 -21 -23 -8 -23 24 0 24 5 36 18 39 16 4 16 5 0 6 -10 0 -18
8 -18 16 0 21 -17 19 -22 -2z"/>
<path d="M5198 2303 c-2 -10 -1 -36 2 -58 4 -31 9 -40 24 -40 11 0 20 6 22 13
1 7 0 8 -3 2 -10 -21 -23 -8 -23 24 0 24 5 36 18 39 16 4 16 5 0 6 -10 0 -18
8 -18 16 0 21 -17 19 -22 -2z"/>
<path d="M4162 2278 c-15 -15 -16 -50 0 -66 17 -17 53 -15 68 3 14 17 0 21
-17 4 -20 -20 -45 -2 -41 28 3 31 34 44 50 21 8 -10 9 -10 5 2 -5 19 -48 25
-65 8z"/>
<path d="M4342 2278 c-28 -28 -7 -78 33 -78 27 0 45 18 45 45 0 27 -18 45 -45
45 -12 0 -26 -5 -33 -12z m53 -33 c0 -23 -4 -30 -20 -30 -21 0 -31 25 -21 51
11 28 41 12 41 -21z"/>
<path d="M4445 2224 c0 -62 1 -64 25 -63 14 0 19 3 13 6 -7 2 -13 13 -13 23 0
13 5 17 20 13 26 -7 50 13 50 42 0 30 -18 43 -60 43 l-35 0 0 -64z m70 21 c0
-23 -4 -30 -20 -30 -21 0 -31 25 -21 51 11 28 41 12 41 -21z"/>
<path d="M4565 2244 c0 -40 2 -44 25 -44 17 0 21 3 12 9 -8 5 -12 21 -10 37 2
23 8 29 26 28 12 0 22 3 22 7 0 4 -17 8 -37 7 l-38 0 0 -44z"/>
<path d="M4655 2245 c0 -42 2 -45 25 -44 14 0 19 3 13 6 -8 2 -13 22 -13 44 0
25 -5 39 -12 39 -9 0 -13 -16 -13 -45z"/>
<path d="M4715 2244 c0 -40 2 -44 25 -44 17 0 21 3 12 9 -20 12 -11 65 12 69
16 3 18 -1 14 -37 -3 -38 -2 -41 22 -41 15 0 20 3 13 8 -6 4 -13 23 -15 42 -3
33 -5 35 -43 37 l-40 2 0 -45z"/>
<path d="M5075 2224 c0 -62 1 -64 25 -63 14 0 19 3 13 6 -7 2 -13 13 -13 23 0
13 5 17 20 13 26 -7 50 13 50 42 0 30 -18 43 -60 43 l-35 0 0 -64z m70 21 c0
-23 -4 -30 -20 -30 -21 0 -31 25 -21 51 11 28 41 12 41 -21z"/>
<path d="M5275 2245 c0 -42 2 -45 25 -44 14 0 19 3 13 6 -8 2 -13 22 -13 44 0
25 -5 39 -12 39 -9 0 -13 -16 -13 -45z"/>
<path d="M5335 2244 c0 -40 2 -44 25 -44 17 0 21 3 12 9 -20 12 -11 65 12 69
16 3 18 -1 14 -37 -3 -32 0 -41 12 -41 11 0 15 11 15 37 0 29 4 38 19 41 16 3
18 -1 14 -37 -3 -38 -2 -41 22 -41 15 0 20 3 13 8 -6 4 -13 23 -15 42 l-3 35
-70 1 -70 2 0 -44z"/>
<path d="M5522 2278 c-7 -7 -12 -21 -12 -33 0 -43 54 -62 81 -28 13 15 12 15
-7 3 -22 -14 -54 -8 -54 10 0 5 16 10 35 10 22 0 35 5 35 13 0 19 -21 37 -45
37 -12 0 -26 -5 -33 -12z m56 -15 c2 -8 -6 -13 -22 -13 -25 0 -33 10 -19 24
10 10 36 3 41 -11z"/>
<path d="M5819 2248 l6 -43 50 -2 c28 0 44 1 38 4 -8 3 -13 22 -13 44 0 24 -5
39 -12 39 -8 0 -13 -14 -13 -37 0 -28 -5 -38 -17 -41 -15 -3 -18 4 -18 37 0
27 -4 41 -13 41 -10 0 -12 -11 -8 -42z"/>
<path d="M5941 2277 c-29 -29 0 -84 39 -74 13 3 20 0 20 -9 0 -21 -28 -28 -47
-13 -14 12 -16 12 -11 -1 6 -19 45 -25 64 -10 8 8 14 31 14 60 0 30 5 50 13
53 6 2 -9 5 -34 5 -26 0 -52 -5 -58 -11z m54 -32 c0 -23 -4 -30 -20 -30 -21 0
-31 25 -21 51 11 28 41 12 41 -21z"/>
<path d="M6055 2245 c0 -42 2 -45 25 -44 14 0 19 3 13 6 -8 2 -13 22 -13 44 0
25 -5 39 -12 39 -9 0 -13 -16 -13 -45z"/>
<path d="M6115 2244 c0 -40 2 -44 25 -44 17 0 21 3 12 9 -20 12 -11 65 12 69
16 3 18 -1 14 -37 -3 -38 -2 -41 22 -41 15 0 20 3 13 8 -6 4 -13 23 -15 42 -3
33 -5 35 -43 37 l-40 2 0 -45z"/>
<path d="M4877 1682 c-25 -27 -23 -114 3 -137 19 -17 19 -17 3 25 -16 39 -16
46 -1 86 8 24 15 44 13 44 -1 0 -9 -8 -18 -18z"/>
<path d="M4935 1678 c19 -29 19 -97 0 -126 -13 -17 -13 -21 -2 -16 18 7 37 47
37 79 0 32 -19 72 -37 79 -11 5 -11 1 2 -16z"/>
<path d="M4088 1663 c-2 -10 -1 -36 2 -58 4 -31 9 -40 24 -40 11 0 20 6 22 13
1 7 0 8 -3 2 -10 -21 -23 -8 -23 24 0 24 5 36 18 39 16 4 16 5 0 6 -10 0 -18
8 -18 16 0 21 -17 19 -22 -2z"/>
<path d="M4678 1663 c-2 -10 -1 -36 2 -58 4 -31 9 -40 24 -40 11 0 20 6 22 13
1 7 0 8 -3 2 -10 -21 -23 -8 -23 24 0 24 5 36 18 39 16 4 16 5 0 6 -10 0 -18
8 -18 16 0 21 -17 19 -22 -2z"/>
<path d="M3861 1637 c-29 -29 0 -84 39 -74 13 3 20 0 20 -9 0 -21 -28 -28 -47
-13 -14 12 -16 12 -11 -1 6 -19 45 -25 64 -10 8 8 14 31 14 60 0 30 5 50 13
53 6 2 -9 5 -34 5 -26 0 -52 -5 -58 -11z m54 -32 c0 -23 -4 -30 -20 -30 -21 0
-31 25 -21 51 11 28 41 12 41 -21z"/>
<path d="M3982 1638 c-7 -7 -12 -21 -12 -33 0 -43 54 -62 81 -28 13 15 12 15
-7 3 -22 -14 -54 -8 -54 10 0 5 16 10 35 10 22 0 35 5 35 13 0 19 -21 37 -45
37 -12 0 -26 -5 -33 -12z m56 -15 c2 -8 -6 -13 -22 -13 -25 0 -33 10 -19 24
10 10 36 3 41 -11z"/>
<path d="M4265 1639 c-4 -6 -4 -13 -1 -16 3 -4 6 -1 6 5 0 17 37 15 43 -2 4
-11 -3 -16 -26 -18 -24 -2 -32 -8 -32 -23 0 -17 7 -20 50 -22 28 -1 44 0 38 3
-7 3 -13 21 -13 39 0 21 -6 35 -16 39 -23 9 -42 7 -49 -5z m53 -51 c-7 -20
-48 -23 -48 -4 0 11 9 16 26 16 16 0 24 -5 22 -12z"/>
<path d="M4367 1644 c-15 -15 -6 -32 23 -43 17 -5 30 -15 30 -20 0 -15 -33
-14 -49 2 -11 10 -13 9 -9 -3 6 -19 45 -25 63 -10 18 15 11 28 -21 40 -25 10
-33 30 -11 30 7 0 19 -6 26 -12 11 -11 13 -10 9 2 -5 16 -49 26 -61 14z"/>
<path d="M4467 1644 c-15 -15 -6 -32 23 -43 17 -5 30 -15 30 -20 0 -15 -33
-14 -49 2 -11 10 -13 9 -9 -3 6 -19 45 -25 63 -10 18 15 11 28 -21 40 -25 10
-33 30 -11 30 7 0 19 -6 26 -12 11 -11 13 -10 9 2 -5 16 -49 26 -61 14z"/>
<path d="M4572 1638 c-7 -7 -12 -21 -12 -33 0 -43 54 -62 81 -28 13 15 12 15
-7 3 -22 -14 -54 -8 -54 10 0 5 16 10 35 10 22 0 35 5 35 13 0 19 -21 37 -45
37 -12 0 -26 -5 -33 -12z m56 -15 c2 -8 -6 -13 -22 -13 -25 0 -33 10 -19 24
10 10 36 3 41 -11z"/>
<path d="M4757 1644 c-15 -15 -6 -32 23 -43 17 -5 30 -15 30 -20 0 -15 -33
-14 -49 2 -11 10 -13 9 -9 -3 6 -19 45 -25 63 -10 18 15 11 28 -21 40 -25 10
-33 30 -11 30 7 0 19 -6 26 -12 11 -11 13 -10 9 2 -5 16 -49 26 -61 14z"/>
<path d="M4173 1523 c15 -2 39 -2 55 0 15 2 2 4 -28 4 -30 0 -43 -2 -27 -4z"/>
<path d="M5178 1471 c4 -26 2 -29 -17 -24 -27 7 -51 -13 -51 -42 0 -32 18 -43
70 -43 25 0 39 2 33 5 -9 3 -13 27 -13 69 0 46 -4 64 -13 64 -9 0 -12 -9 -9
-29z m-3 -66 c0 -23 -4 -30 -20 -30 -21 0 -31 25 -21 51 11 28 41 12 41 -21z"/>
<path d="M5361 1486 c-7 -8 -13 -40 -14 -70 -2 -54 -1 -56 23 -55 14 0 19 3
13 6 -20 8 -16 71 5 76 16 4 15 5 -1 6 -12 1 -17 7 -15 19 2 9 11 16 21 16 9
-1 17 2 17 7 0 14 -36 10 -49 -5z"/>
<path d="M5645 1430 c0 -68 1 -70 25 -69 14 0 19 3 13 6 -9 3 -13 27 -13 69 0
45 -4 64 -12 64 -9 0 -13 -21 -13 -70z"/>
<path d="M5907 1482 c-25 -27 -23 -114 3 -137 19 -17 19 -17 3 25 -16 39 -16
46 -1 86 8 24 15 44 13 44 -1 0 -9 -8 -18 -18z"/>
<path d="M5965 1478 c8 -13 15 -41 15 -63 0 -22 -7 -50 -15 -63 -13 -17 -13
-21 -2 -16 18 7 37 47 37 79 0 32 -19 72 -37 79 -11 5 -11 1 2 -16z"/>
<path d="M4630 1480 c0 -5 5 -10 10 -10 6 0 10 5 10 10 0 6 -4 10 -10 10 -5 0
-10 -4 -10 -10z"/>
<path d="M4088 1463 c-2 -10 -1 -36 2 -58 4 -31 9 -40 24 -40 11 0 20 6 22 13
1 7 0 8 -3 2 -10 -21 -23 -8 -23 24 0 24 5 36 18 39 16 4 16 5 0 6 -10 0 -18
8 -18 16 0 21 -17 19 -22 -2z"/>
<path d="M4468 1463 c-2 -10 -1 -36 2 -58 4 -31 9 -40 24 -40 11 0 20 6 22 13
1 7 0 8 -3 2 -10 -21 -23 -8 -23 24 0 24 5 36 18 39 16 4 16 5 0 6 -10 0 -18
8 -18 16 0 21 -17 19 -22 -2z"/>
<path d="M4548 1463 c-2 -10 -1 -36 2 -58 4 -31 9 -40 24 -40 11 0 20 6 22 13
1 7 0 8 -3 2 -10 -21 -23 -8 -23 24 0 24 5 36 18 39 16 4 16 5 0 6 -10 0 -18
8 -18 16 0 21 -17 19 -22 -2z"/>
<path d="M5708 1463 c-2 -10 -1 -36 2 -58 4 -31 9 -40 24 -40 11 0 20 6 22 13
1 7 0 8 -3 2 -10 -21 -23 -8 -23 24 0 24 5 36 18 39 16 4 16 5 0 6 -10 0 -18
8 -18 16 0 21 -17 19 -22 -2z"/>
<path d="M3861 1437 c-29 -29 0 -84 39 -74 13 3 20 0 20 -9 0 -21 -28 -28 -47
-13 -14 12 -16 12 -11 -1 6 -19 45 -25 64 -10 8 8 14 31 14 60 0 30 5 50 13
53 6 2 -9 5 -34 5 -26 0 -52 -5 -58 -11z m54 -32 c0 -23 -4 -30 -20 -30 -21 0
-31 25 -21 51 11 28 41 12 41 -21z"/>
<path d="M3982 1438 c-7 -7 -12 -21 -12 -33 0 -43 54 -62 81 -28 13 15 12 15
-7 3 -22 -14 -54 -8 -54 10 0 5 16 10 35 10 22 0 35 5 35 13 0 19 -21 37 -45
37 -12 0 -26 -5 -33 -12z m56 -15 c2 -8 -6 -13 -22 -13 -25 0 -33 10 -19 24
10 10 36 3 41 -11z"/>
<path d="M4257 1444 c-15 -15 -6 -32 23 -43 17 -5 30 -15 30 -20 0 -15 -33
-14 -49 2 -11 10 -13 9 -9 -3 6 -19 45 -25 63 -10 18 15 11 28 -21 40 -25 10
-33 30 -11 30 7 0 19 -6 26 -12 11 -11 13 -10 9 2 -5 16 -49 26 -61 14z"/>
<path d="M4362 1438 c-7 -7 -12 -21 -12 -33 0 -43 54 -62 81 -28 13 15 12 15
-7 3 -22 -14 -54 -8 -54 10 0 5 16 10 35 10 22 0 35 5 35 13 0 19 -21 37 -45
37 -12 0 -26 -5 -33 -12z m56 -15 c2 -8 -6 -13 -22 -13 -25 0 -33 10 -19 24
10 10 36 3 41 -11z"/>
<path d="M4625 1405 c0 -42 2 -45 25 -44 14 0 19 3 13 6 -8 2 -13 22 -13 44 0
25 -5 39 -12 39 -9 0 -13 -16 -13 -45z"/>
<path d="M4685 1404 c0 -40 2 -44 25 -44 17 0 21 3 12 9 -20 12 -11 65 12 69
16 3 18 -1 14 -37 -3 -38 -2 -41 22 -41 15 0 20 3 13 8 -6 4 -13 23 -15 42 -3
33 -5 35 -43 37 l-40 2 0 -45z"/>
<path d="M4811 1437 c-29 -29 0 -84 39 -74 13 3 20 0 20 -9 0 -21 -28 -28 -47
-13 -14 12 -16 12 -11 -1 6 -19 45 -25 64 -10 8 8 14 31 14 60 0 30 5 50 13
53 6 2 -9 5 -34 5 -26 0 -52 -5 -58 -11z m54 -32 c0 -23 -4 -30 -20 -30 -21 0
-31 25 -21 51 11 28 41 12 41 -21z"/>
<path d="M4927 1444 c-15 -15 -6 -32 23 -43 17 -5 30 -15 30 -20 0 -15 -33
-14 -49 2 -11 10 -13 9 -9 -3 6 -19 45 -25 63 -10 18 15 11 28 -21 40 -25 10
-33 30 -11 30 7 0 19 -6 26 -12 11 -11 13 -10 9 2 -5 16 -49 26 -61 14z"/>
<path d="M5242 1438 c-7 -7 -12 -21 -12 -33 0 -43 54 -62 81 -28 13 15 12 15
-7 3 -22 -14 -54 -8 -54 10 0 5 16 10 35 10 22 0 35 5 35 13 0 19 -21 37 -45
37 -12 0 -26 -5 -33 -12z m56 -15 c2 -8 -6 -13 -22 -13 -25 0 -33 10 -19 24
10 10 36 3 41 -11z"/>
<path d="M5425 1439 c-4 -6 -4 -13 -1 -16 3 -4 6 -1 6 5 0 17 37 15 43 -2 4
-11 -3 -16 -26 -18 -24 -2 -32 -8 -32 -23 0 -17 7 -20 50 -22 28 -1 44 0 38 3
-7 3 -13 21 -13 39 0 21 -6 35 -16 39 -23 9 -42 7 -49 -5z m53 -51 c-7 -20
-48 -23 -48 -4 0 11 9 16 26 16 16 0 24 -5 22 -12z"/>
<path d="M5529 1408 l6 -43 50 -2 c28 0 44 1 38 4 -8 3 -13 22 -13 44 0 24 -5
39 -12 39 -8 0 -13 -14 -13 -37 0 -28 -5 -38 -17 -41 -15 -3 -18 4 -18 37 0
27 -4 41 -13 41 -10 0 -12 -11 -8 -42z"/>
<path d="M5787 1444 c-15 -15 -6 -32 23 -43 17 -5 30 -15 30 -20 0 -15 -33
-14 -49 2 -11 10 -13 9 -9 -3 6 -19 45 -25 63 -10 18 15 11 28 -21 40 -25 10
-33 30 -11 30 7 0 19 -6 26 -12 11 -11 13 -10 9 2 -5 16 -49 26 -61 14z"/>
<path d="M4173 1323 c15 -2 39 -2 55 0 15 2 2 4 -28 4 -30 0 -43 -2 -27 -4z"/>
<path d="M5033 1323 c15 -2 39 -2 55 0 15 2 2 4 -28 4 -30 0 -43 -2 -27 -4z"/>
<path d="M4745 1230 c0 -68 1 -70 25 -69 14 0 19 3 13 6 -9 3 -13 27 -13 69 0
45 -4 64 -12 64 -9 0 -13 -21 -13 -70z"/>
<path d="M5541 1286 c-7 -8 -13 -40 -14 -70 -2 -54 -1 -56 23 -55 14 0 19 3
13 6 -7 2 -13 20 -13 39 0 30 3 34 25 34 22 0 25 -4 25 -34 0 -19 -6 -37 -12
-39 -7 -3 -2 -6 12 -6 24 -1 25 2 22 44 -4 44 -5 45 -39 45 -27 0 -34 4 -31
18 2 11 13 17 31 17 15 -1 27 3 27 7 0 14 -57 9 -69 -6z"/>
<path d="M5887 1282 c-25 -27 -23 -114 3 -137 19 -17 19 -17 3 25 -16 39 -16
46 -1 86 8 24 15 44 13 44 -1 0 -9 -8 -18 -18z"/>
<path d="M5945 1278 c8 -13 15 -41 15 -63 0 -22 -7 -50 -15 -63 -13 -17 -13
-21 -2 -16 18 7 37 47 37 79 0 32 -19 72 -37 79 -11 5 -11 1 2 -16z"/>
<path d="M4088 1263 c-2 -10 -1 -36 2 -58 4 -31 9 -40 24 -40 11 0 20 6 22 13
1 7 0 8 -3 2 -10 -21 -23 -8 -23 24 0 24 5 36 18 39 16 4 16 5 0 6 -10 0 -18
8 -18 16 0 21 -17 19 -22 -2z"/>
<path d="M4258 1263 c-2 -10 -1 -36 2 -58 4 -31 9 -40 24 -40 11 0 20 6 22 13
1 7 0 8 -3 2 -10 -21 -23 -8 -23 24 0 24 5 36 18 39 16 4 16 5 0 6 -10 0 -18
8 -18 16 0 21 -17 19 -22 -2z"/>
<path d="M4918 1263 c-2 -10 -1 -36 2 -58 4 -31 9 -40 24 -40 11 0 20 6 22 13
1 7 0 8 -3 2 -10 -21 -23 -8 -23 24 0 24 5 36 18 39 16 4 16 5 0 6 -10 0 -18
8 -18 16 0 21 -17 19 -22 -2z"/>
<path d="M3861 1237 c-29 -29 0 -84 39 -74 13 3 20 0 20 -9 0 -21 -28 -28 -47
-13 -14 12 -16 12 -11 -1 6 -19 45 -25 64 -10 8 8 14 31 14 60 0 30 5 50 13
53 6 2 -9 5 -34 5 -26 0 -52 -5 -58 -11z m54 -32 c0 -23 -4 -30 -20 -30 -21 0
-31 25 -21 51 11 28 41 12 41 -21z"/>
<path d="M3982 1238 c-7 -7 -12 -21 -12 -33 0 -43 54 -62 81 -28 13 15 12 15
-7 3 -22 -14 -54 -8 -54 10 0 5 16 10 35 10 22 0 35 5 35 13 0 19 -21 37 -45
37 -12 0 -26 -5 -33 -12z m56 -15 c2 -8 -6 -13 -22 -13 -25 0 -33 10 -19 24
10 10 36 3 41 -11z"/>
<path d="M4342 1238 c-7 -7 -12 -21 -12 -33 0 -43 54 -62 81 -28 13 15 12 15
-7 3 -22 -14 -54 -8 -54 10 0 5 16 10 35 10 22 0 35 5 35 13 0 19 -21 37 -45
37 -12 0 -26 -5 -33 -12z m56 -15 c2 -8 -6 -13 -22 -13 -25 0 -33 10 -19 24
10 10 36 3 41 -11z"/>
<path d="M4445 1204 c0 -40 2 -44 25 -44 17 0 21 3 12 9 -20 12 -11 65 12 69
16 3 18 -1 14 -37 -3 -32 0 -41 12 -41 11 0 15 11 15 37 0 29 4 38 19 41 16 3
18 -1 14 -37 -3 -38 -2 -41 22 -41 15 0 20 3 13 8 -6 4 -13 23 -15 42 l-3 35
-70 1 -70 2 0 -44z"/>
<path d="M4625 1184 c0 -62 1 -64 25 -63 14 0 19 3 13 6 -7 2 -13 13 -13 23 0
13 5 17 20 13 26 -7 50 13 50 42 0 30 -18 43 -60 43 l-35 0 0 -64z m70 21 c0
-23 -4 -30 -20 -30 -21 0 -31 25 -21 51 11 28 41 12 41 -21z"/>
<path d="M4815 1239 c-4 -6 -4 -13 -1 -16 3 -4 6 -1 6 5 0 17 37 15 43 -2 4
-11 -3 -16 -26 -18 -24 -2 -32 -8 -32 -23 0 -17 7 -20 50 -22 28 -1 44 0 38 3
-7 3 -13 21 -13 39 0 21 -6 35 -16 39 -23 9 -42 7 -49 -5z m53 -51 c-7 -20
-48 -23 -48 -4 0 11 9 16 26 16 16 0 24 -5 22 -12z"/>
<path d="M5002 1238 c-7 -7 -12 -21 -12 -33 0 -43 54 -62 81 -28 13 15 12 15
-7 3 -22 -14 -54 -8 -54 10 0 5 16 10 35 10 22 0 35 5 35 13 0 19 -21 37 -45
37 -12 0 -26 -5 -33 -12z m56 -15 c2 -8 -6 -13 -22 -13 -25 0 -33 10 -19 24
10 10 36 3 41 -11z"/>
<path d="M5202 1238 c-15 -15 -16 -50 0 -66 17 -17 53 -15 68 3 14 17 0 21
-17 4 -20 -20 -45 -2 -41 28 3 31 34 44 50 21 8 -10 9 -10 5 2 -5 19 -48 25
-65 8z"/>
<path d="M5302 1238 c-28 -28 -7 -78 33 -78 27 0 45 18 45 45 0 27 -18 45 -45
45 -12 0 -26 -5 -33 -12z m53 -33 c0 -23 -4 -30 -20 -30 -21 0 -31 25 -21 51
11 28 41 12 41 -21z"/>
<path d="M5405 1204 c0 -40 2 -44 25 -44 17 0 21 3 12 9 -20 12 -11 65 12 69
16 3 18 -1 14 -37 -3 -38 -2 -41 22 -41 15 0 20 3 13 8 -6 4 -13 23 -15 42 -3
33 -5 35 -43 37 l-40 2 0 -45z"/>
<path d="M5651 1237 c-29 -29 0 -84 39 -74 13 3 20 0 20 -9 0 -21 -28 -28 -47
-13 -14 12 -16 12 -11 -1 6 -19 45 -25 64 -10 8 8 14 31 14 60 0 30 5 50 13
53 6 2 -9 5 -34 5 -26 0 -52 -5 -58 -11z m54 -32 c0 -23 -4 -30 -20 -30 -21 0
-31 25 -21 51 11 28 41 12 41 -21z"/>
<path d="M5767 1244 c-15 -15 -6 -32 23 -43 17 -5 30 -15 30 -20 0 -15 -33
-14 -49 2 -11 10 -13 9 -9 -3 6 -19 45 -25 63 -10 18 15 11 28 -21 40 -25 10
-33 30 -11 30 7 0 19 -6 26 -12 11 -11 13 -10 9 2 -5 16 -49 26 -61 14z"/>
<path d="M4173 1123 c15 -2 39 -2 55 0 15 2 2 4 -28 4 -30 0 -43 -2 -27 -4z"/>
<path d="M5113 1123 c15 -2 39 -2 55 0 15 2 2 4 -28 4 -30 0 -43 -2 -27 -4z"/>
<path d="M5348 1071 c4 -26 2 -29 -17 -24 -27 7 -51 -13 -51 -42 0 -32 18 -43
70 -43 25 0 39 2 33 5 -9 3 -13 27 -13 69 0 46 -4 64 -13 64 -9 0 -12 -9 -9
-29z m-3 -66 c0 -23 -4 -30 -20 -30 -21 0 -31 25 -21 51 11 28 41 12 41 -21z"/>
<path d="M5427 1082 c-25 -27 -23 -114 3 -137 19 -17 19 -17 3 25 -16 39 -16
46 -1 86 8 24 15 44 13 44 -1 0 -9 -8 -18 -18z"/>
<path d="M5485 1078 c8 -13 15 -41 15 -63 0 -22 -7 -50 -15 -63 -13 -17 -13
-21 -2 -16 18 7 37 47 37 79 0 32 -19 72 -37 79 -11 5 -11 1 2 -16z"/>
<path d="M3860 1080 c0 -5 5 -10 10 -10 6 0 10 5 10 10 0 6 -4 10 -10 10 -5 0
-10 -4 -10 -10z"/>
<path d="M4340 1080 c0 -5 5 -10 10 -10 6 0 10 5 10 10 0 6 -4 10 -10 10 -5 0
-10 -4 -10 -10z"/>
<path d="M4808 1063 c-2 -10 -1 -36 2 -58 4 -31 9 -40 24 -40 11 0 20 6 22 13
1 7 0 8 -3 2 -10 -21 -23 -8 -23 24 0 24 5 36 18 39 16 4 16 5 0 6 -10 0 -18
8 -18 16 0 21 -17 19 -22 -2z"/>
<path d="M5098 1063 c-2 -10 -1 -36 2 -58 4 -31 9 -40 24 -40 11 0 20 6 22 13
1 7 0 8 -3 2 -10 -21 -23 -8 -23 24 0 24 5 36 18 39 16 4 16 5 0 6 -10 0 -18
8 -18 16 0 21 -17 19 -22 -2z"/>
<path d="M3855 1005 c0 -42 2 -45 25 -44 14 0 19 3 13 6 -8 2 -13 22 -13 44 0
25 -5 39 -12 39 -9 0 -13 -16 -13 -45z"/>
<path d="M3917 1044 c-15 -15 -6 -32 23 -43 17 -5 30 -15 30 -20 0 -15 -33
-14 -49 2 -11 10 -13 9 -9 -3 6 -19 45 -25 63 -10 18 15 11 28 -21 40 -25 10
-33 30 -11 30 7 0 19 -6 26 -12 11 -11 13 -10 9 2 -5 16 -49 26 -61 14z"/>
<path d="M4115 1039 c-4 -6 -4 -13 -1 -16 3 -4 6 -1 6 5 0 17 37 15 43 -2 4
-11 -3 -16 -26 -18 -24 -2 -32 -8 -32 -23 0 -17 7 -20 50 -22 28 -1 44 0 38 3
-7 3 -13 21 -13 39 0 21 -6 35 -16 39 -23 9 -42 7 -49 -5z m53 -51 c-7 -20
-48 -23 -48 -4 0 11 9 16 26 16 16 0 24 -5 22 -12z"/>
<path d="M4215 984 c0 -62 1 -64 25 -63 14 0 19 3 13 6 -7 2 -13 13 -13 23 0
13 5 17 20 13 26 -7 50 13 50 42 0 30 -18 43 -60 43 l-35 0 0 -64z m70 21 c0
-23 -4 -30 -20 -30 -21 0 -31 25 -21 51 11 28 41 12 41 -21z"/>
<path d="M4335 1005 c0 -42 2 -45 25 -44 14 0 19 3 13 6 -8 2 -13 22 -13 44 0
25 -5 39 -12 39 -9 0 -13 -16 -13 -45z"/>
<path d="M4488 990 l4 -59 -59 -4 c-49 -3 -45 -3 22 -4 44 -1 74 1 68 4 -7 2
-13 13 -13 23 0 13 5 17 20 13 26 -7 50 13 50 42 0 30 -18 43 -60 43 l-35 0 3
-58z m67 15 c0 -23 -4 -30 -20 -30 -21 0 -31 25 -21 51 11 28 41 12 41 -21z"/>
<path d="M4605 1004 c0 -40 2 -44 25 -44 17 0 21 3 12 9 -8 5 -12 21 -10 37 2
23 8 29 26 28 12 0 22 3 22 7 0 4 -17 8 -37 7 l-38 0 0 -44z"/>
<path d="M4702 1038 c-28 -28 -7 -78 33 -78 27 0 45 18 45 45 0 27 -18 45 -45
45 -12 0 -26 -5 -33 -12z m53 -33 c0 -23 -4 -30 -20 -30 -21 0 -31 25 -21 51
11 28 41 12 41 -21z"/>
<path d="M4892 1038 c-7 -7 -12 -21 -12 -33 0 -43 54 -62 81 -28 13 15 12 15
-7 3 -22 -14 -54 -8 -54 10 0 5 16 10 35 10 22 0 35 5 35 13 0 19 -21 37 -45
37 -12 0 -26 -5 -33 -12z m56 -15 c2 -8 -6 -13 -22 -13 -25 0 -33 10 -19 24
10 10 36 3 41 -11z"/>
<path d="M5002 1038 c-15 -15 -16 -50 0 -66 17 -17 53 -15 68 3 14 17 0 21
-17 4 -20 -20 -45 -2 -41 28 3 31 34 44 50 21 8 -10 9 -10 5 2 -5 19 -48 25
-65 8z"/>
<path d="M5182 1038 c-7 -7 -12 -21 -12 -33 0 -43 54 -62 81 -28 13 15 12 15
-7 3 -22 -14 -54 -8 -54 10 0 5 16 10 35 10 22 0 35 5 35 13 0 19 -21 37 -45
37 -12 0 -26 -5 -33 -12z m56 -15 c2 -8 -6 -13 -22 -13 -25 0 -33 10 -19 24
10 10 36 3 41 -11z"/>
<path d="M4023 923 c15 -2 39 -2 55 0 15 2 2 4 -28 4 -30 0 -43 -2 -27 -4z"/>
<path d="M4595 830 c0 -68 1 -70 25 -69 14 0 19 3 13 6 -9 3 -13 27 -13 69 0
45 -4 64 -12 64 -9 0 -13 -21 -13 -70z"/>
<path d="M6178 871 c4 -26 2 -29 -17 -24 -27 7 -51 -13 -51 -42 0 -32 18 -43
70 -43 25 0 39 2 33 5 -9 3 -13 27 -13 69 0 46 -4 64 -13 64 -9 0 -12 -9 -9
-29z m-3 -66 c0 -23 -4 -30 -20 -30 -21 0 -31 25 -21 51 11 28 41 12 41 -21z"/>
<path d="M6257 882 c-25 -27 -23 -114 3 -137 19 -17 19 -17 3 25 -16 39 -16
46 -1 86 8 24 15 44 13 44 -1 0 -9 -8 -18 -18z"/>
<path d="M6315 878 c8 -13 15 -41 15 -63 0 -22 -7 -50 -15 -63 -13 -17 -13
-21 -2 -16 18 7 37 47 37 79 0 32 -19 72 -37 79 -11 5 -11 1 2 -16z"/>
<path d="M3860 880 c0 -5 5 -10 10 -10 6 0 10 5 10 10 0 6 -4 10 -10 10 -5 0
-10 -4 -10 -10z"/>
<path d="M4108 863 c-2 -10 -1 -36 2 -58 4 -31 9 -40 24 -40 11 0 20 6 22 13
1 7 0 8 -3 2 -10 -21 -23 -8 -23 24 0 24 5 36 18 39 16 4 16 5 0 6 -10 0 -18
8 -18 16 0 21 -17 19 -22 -2z"/>
<path d="M4768 863 c-2 -10 -1 -36 2 -58 4 -31 9 -40 24 -40 11 0 20 6 22 13
1 7 0 8 -3 2 -10 -21 -23 -8 -23 24 0 24 5 36 18 39 16 4 16 5 0 6 -10 0 -18
8 -18 16 0 21 -17 19 -22 -2z"/>
<path d="M5278 863 c-2 -10 -1 -36 2 -58 4 -31 9 -40 24 -40 11 0 20 6 22 13
1 7 0 8 -3 2 -10 -21 -23 -8 -23 24 0 24 5 36 18 39 16 4 16 5 0 6 -10 0 -18
8 -18 16 0 21 -17 19 -22 -2z"/>
<path d="M3855 805 c0 -42 2 -45 25 -44 14 0 19 3 13 6 -8 2 -13 22 -13 44 0
25 -5 39 -12 39 -9 0 -13 -16 -13 -45z"/>
<path d="M3917 844 c-15 -15 -6 -32 23 -43 17 -5 30 -15 30 -20 0 -15 -33 -14
-49 2 -11 10 -13 9 -9 -3 6 -19 45 -25 63 -10 18 15 11 28 -21 40 -25 10 -33
30 -11 30 7 0 19 -6 26 -12 11 -11 13 -10 9 2 -5 16 -49 26 -61 14z"/>
<path d="M4192 838 c-7 -7 -12 -21 -12 -33 0 -43 54 -62 81 -28 13 15 12 15
-7 3 -22 -14 -54 -8 -54 10 0 5 16 10 35 10 22 0 35 5 35 13 0 19 -21 37 -45
37 -12 0 -26 -5 -33 -12z m56 -15 c2 -8 -6 -13 -22 -13 -25 0 -33 10 -19 24
10 10 36 3 41 -11z"/>
<path d="M4295 804 c0 -40 2 -44 25 -44 17 0 21 3 12 9 -20 12 -11 65 12 69
16 3 18 -1 14 -37 -3 -32 0 -41 12 -41 11 0 15 11 15 37 0 29 4 38 19 41 16 3
18 -1 14 -37 -3 -38 -2 -41 22 -41 15 0 20 3 13 8 -6 4 -13 23 -15 42 l-3 35
-70 1 -70 2 0 -44z"/>
<path d="M4475 784 c0 -62 1 -64 25 -63 14 0 19 3 13 6 -7 2 -13 13 -13 23 0
13 5 17 20 13 26 -7 50 13 50 42 0 30 -18 43 -60 43 l-35 0 0 -64z m70 21 c0
-23 -4 -30 -20 -30 -21 0 -31 25 -21 51 11 28 41 12 41 -21z"/>
<path d="M4665 839 c-4 -6 -4 -13 -1 -16 3 -4 6 -1 6 5 0 17 37 15 43 -2 4
-11 -3 -16 -26 -18 -24 -2 -32 -8 -32 -23 0 -17 7 -20 50 -22 28 -1 44 0 38 3
-7 3 -13 21 -13 39 0 21 -6 35 -16 39 -23 9 -42 7 -49 -5z m53 -51 c-7 -20
-48 -23 -48 -4 0 11 9 16 26 16 16 0 24 -5 22 -12z"/>
<path d="M4852 838 c-7 -7 -12 -21 -12 -33 0 -43 54 -62 81 -28 13 15 12 15
-7 3 -22 -14 -54 -8 -54 10 0 5 16 10 35 10 22 0 35 5 35 13 0 19 -21 37 -45
37 -12 0 -26 -5 -33 -12z m56 -15 c2 -8 -6 -13 -22 -13 -25 0 -33 10 -19 24
10 10 36 3 41 -11z"/>
<path d="M5055 839 c-4 -6 -4 -13 -1 -16 3 -4 6 -1 6 5 0 17 37 15 43 -2 4
-11 -3 -16 -26 -18 -24 -2 -32 -8 -32 -23 0 -17 7 -20 50 -22 28 -1 44 0 38 3
-7 3 -13 21 -13 39 0 21 -6 35 -16 39 -23 9 -42 7 -49 -5z m53 -51 c-7 -20
-48 -23 -48 -4 0 11 9 16 26 16 16 0 24 -5 22 -12z"/>
<path d="M5159 808 l6 -43 50 -2 c28 0 44 1 38 4 -8 3 -13 22 -13 44 0 24 -5
39 -12 39 -8 0 -13 -14 -13 -37 0 -28 -5 -38 -17 -41 -15 -3 -18 4 -18 37 0
27 -4 41 -13 41 -10 0 -12 -11 -8 -42z"/>
<path d="M5362 838 c-28 -28 -7 -78 33 -78 27 0 45 18 45 45 0 27 -18 45 -45
45 -12 0 -26 -5 -33 -12z m53 -33 c0 -23 -4 -30 -20 -30 -21 0 -31 25 -21 51
11 28 41 12 41 -21z"/>
<path d="M5472 838 c-7 -7 -12 -21 -12 -33 0 -43 54 -62 81 -28 13 15 12 15
-7 3 -22 -14 -54 -8 -54 10 0 5 16 10 35 10 22 0 35 5 35 13 0 19 -21 37 -45
37 -12 0 -26 -5 -33 -12z m56 -15 c2 -8 -6 -13 -22 -13 -25 0 -33 10 -19 24
10 10 36 3 41 -11z"/>
<path d="M5577 844 c-15 -15 -6 -32 23 -43 17 -5 30 -15 30 -20 0 -15 -33 -14
-49 2 -11 10 -13 9 -9 -3 6 -19 45 -25 63 -10 18 15 11 28 -21 40 -25 10 -33
30 -11 30 7 0 19 -6 26 -12 11 -11 13 -10 9 2 -5 16 -49 26 -61 14z"/>
<path d="M5682 838 c-15 -15 -16 -50 0 -66 17 -17 53 -15 68 3 14 17 0 21 -17
4 -20 -20 -45 -2 -41 28 3 31 34 44 50 21 8 -10 9 -10 5 2 -5 19 -48 25 -65 8z"/>
<path d="M5785 839 c-4 -6 -4 -13 -1 -16 3 -4 6 -1 6 5 0 17 37 15 43 -2 4
-11 -3 -16 -26 -18 -24 -2 -32 -8 -32 -23 0 -17 7 -20 50 -22 28 -1 44 0 38 3
-7 3 -13 21 -13 39 0 21 -6 35 -16 39 -23 9 -42 7 -49 -5z m53 -51 c-7 -20
-48 -23 -48 -4 0 11 9 16 26 16 16 0 24 -5 22 -12z"/>
<path d="M5885 784 c0 -62 1 -64 25 -63 14 0 19 3 13 6 -7 2 -13 13 -13 23 0
13 5 17 20 13 26 -7 50 13 50 42 0 30 -18 43 -60 43 l-35 0 0 -64z m70 21 c0
-23 -4 -30 -20 -30 -21 0 -31 25 -21 51 11 28 41 12 41 -21z"/>
<path d="M6012 838 c-7 -7 -12 -21 -12 -33 0 -43 54 -62 81 -28 13 15 12 15
-7 3 -22 -14 -54 -8 -54 10 0 5 16 10 35 10 22 0 35 5 35 13 0 19 -21 37 -45
37 -12 0 -26 -5 -33 -12z m56 -15 c2 -8 -6 -13 -22 -13 -25 0 -33 10 -19 24
10 10 36 3 41 -11z"/>
<path d="M4023 723 c15 -2 39 -2 55 0 15 2 2 4 -28 4 -30 0 -43 -2 -27 -4z"/>
<path d="M4963 723 c15 -2 39 -2 55 0 15 2 2 4 -28 4 -30 0 -43 -2 -27 -4z"/>
<path d="M4887 682 c-25 -27 -23 -114 3 -137 19 -17 19 -17 3 25 -16 39 -16
46 -1 86 8 24 15 44 13 44 -1 0 -9 -8 -18 -18z"/>
<path d="M5675 678 c8 -13 15 -41 15 -63 0 -22 -7 -50 -15 -63 -13 -17 -13
-21 -2 -16 18 7 37 47 37 79 0 32 -19 72 -37 79 -11 5 -11 1 2 -16z"/>
<path d="M4410 680 c0 -5 5 -10 10 -10 6 0 10 5 10 10 0 6 -4 10 -10 10 -5 0
-10 -4 -10 -10z"/>
<path d="M4788 663 c-2 -10 -1 -36 2 -58 4 -31 9 -40 24 -40 11 0 20 6 22 13
1 7 0 8 -3 2 -10 -21 -23 -8 -23 24 0 24 5 36 18 39 16 4 16 5 0 6 -10 0 -18
8 -18 16 0 21 -17 19 -22 -2z"/>
<path d="M5588 663 c-2 -10 -1 -36 2 -58 4 -31 9 -40 24 -40 11 0 20 6 22 13
1 7 0 8 -3 2 -10 -21 -23 -8 -23 24 0 24 5 36 18 39 16 4 16 5 0 6 -10 0 -18
8 -18 16 0 21 -17 19 -22 -2z"/>
<path d="M3862 638 c-28 -28 -7 -78 33 -78 27 0 45 18 45 45 0 27 -18 45 -45
45 -12 0 -26 -5 -33 -12z m53 -33 c0 -23 -4 -30 -20 -30 -21 0 -31 25 -21 51
11 28 41 12 41 -21z"/>
<path d="M3965 604 c0 -40 2 -44 25 -44 17 0 21 3 12 9 -20 12 -11 65 12 69
16 3 18 -1 14 -37 -3 -38 -2 -41 22 -41 15 0 20 3 13 8 -6 4 -13 23 -15 42 -3
33 -5 35 -43 37 l-40 2 0 -45z"/>
<path d="M4185 639 c-4 -6 -4 -13 -1 -16 3 -4 6 -1 6 5 0 17 37 15 43 -2 4
-11 -3 -16 -26 -18 -24 -2 -32 -8 -32 -23 0 -17 7 -20 50 -22 28 -1 44 0 38 3
-7 3 -13 21 -13 39 0 21 -6 35 -16 39 -23 9 -42 7 -49 -5z m53 -51 c-7 -20
-48 -23 -48 -4 0 11 9 16 26 16 16 0 24 -5 22 -12z"/>
<path d="M4285 584 c0 -62 1 -64 25 -63 14 0 19 3 13 6 -7 2 -13 13 -13 23 0
13 5 17 20 13 26 -7 50 13 50 42 0 30 -18 43 -60 43 l-35 0 0 -64z m70 21 c0
-23 -4 -30 -20 -30 -21 0 -31 25 -21 51 11 28 41 12 41 -21z"/>
<path d="M4405 605 c0 -42 2 -45 25 -44 14 0 19 3 13 6 -8 2 -13 22 -13 44 0
25 -5 39 -12 39 -9 0 -13 -16 -13 -45z"/>
<path d="M4561 637 c-29 -29 0 -84 39 -74 13 3 20 0 20 -9 0 -21 -28 -28 -47
-13 -14 12 -16 12 -11 -1 6 -19 45 -25 64 -10 8 8 14 31 14 60 0 30 5 50 13
53 6 2 -9 5 -34 5 -26 0 -52 -5 -58 -11z m54 -32 c0 -23 -4 -30 -20 -30 -21 0
-31 25 -21 51 11 28 41 12 41 -21z"/>
<path d="M4682 638 c-7 -7 -12 -21 -12 -33 0 -43 54 -62 81 -28 13 15 12 15
-7 3 -22 -14 -54 -8 -54 10 0 5 16 10 35 10 22 0 35 5 35 13 0 19 -21 37 -45
37 -12 0 -26 -5 -33 -12z m56 -15 c2 -8 -6 -13 -22 -13 -25 0 -33 10 -19 24
10 10 36 3 41 -11z"/>
<path d="M4935 604 c0 -40 2 -44 25 -44 17 0 21 3 12 9 -8 5 -12 21 -10 37 2
23 8 29 26 28 12 0 22 3 22 7 0 4 -17 8 -37 7 l-38 0 0 -44z"/>
<path d="M5032 638 c-7 -7 -12 -21 -12 -33 0 -43 54 -62 81 -28 13 15 12 15
-7 3 -22 -14 -54 -8 -54 10 0 5 16 10 35 10 22 0 35 5 35 13 0 19 -21 37 -45
37 -12 0 -26 -5 -33 -12z m56 -15 c2 -8 -6 -13 -22 -13 -25 0 -33 10 -19 24
10 10 36 3 41 -11z"/>
<path d="M5141 637 c-29 -29 0 -84 40 -74 18 5 20 2 16 -19 -4 -21 -1 -24 22
-23 14 0 20 3 14 6 -8 3 -13 25 -13 58 0 34 5 55 13 58 6 2 -9 5 -34 5 -26 0
-52 -5 -58 -11z m54 -32 c0 -23 -4 -30 -20 -30 -21 0 -31 25 -21 51 11 28 41
12 41 -21z"/>
<path d="M5259 608 l6 -43 50 -2 c28 0 44 1 38 4 -8 3 -13 22 -13 44 0 24 -5
39 -12 39 -8 0 -13 -14 -13 -37 0 -28 -5 -38 -17 -41 -15 -3 -18 4 -18 37 0
27 -4 41 -13 41 -10 0 -12 -11 -8 -42z"/>
<path d="M5382 638 c-7 -7 -12 -21 -12 -33 0 -43 54 -62 81 -28 13 15 12 15
-7 3 -22 -14 -54 -8 -54 10 0 5 16 10 35 10 22 0 35 5 35 13 0 19 -21 37 -45
37 -12 0 -26 -5 -33 -12z m56 -15 c2 -8 -6 -13 -22 -13 -25 0 -33 10 -19 24
10 10 36 3 41 -11z"/>
<path d="M5487 644 c-15 -15 -6 -32 23 -43 17 -5 30 -15 30 -20 0 -15 -33 -14
-49 2 -11 10 -13 9 -9 -3 6 -19 45 -25 63 -10 18 15 11 28 -21 40 -25 10 -33
30 -11 30 7 0 19 -6 26 -12 11 -11 13 -10 9 2 -5 16 -49 26 -61 14z"/>
<path d="M4093 523 c15 -2 39 -2 55 0 15 2 2 4 -28 4 -30 0 -43 -2 -27 -4z"/>
<path d="M4473 523 c15 -2 39 -2 55 0 15 2 2 4 -28 4 -30 0 -43 -2 -27 -4z"/>
<path d="M5525 430 c0 -68 1 -70 25 -69 14 0 19 3 13 6 -9 3 -13 27 -13 69 0
45 -4 64 -12 64 -9 0 -13 -21 -13 -70z"/>
<path d="M5918 471 c4 -26 2 -29 -17 -24 -27 7 -51 -13 -51 -42 0 -32 18 -43
70 -43 25 0 39 2 33 5 -9 3 -13 27 -13 69 0 46 -4 64 -13 64 -9 0 -12 -9 -9
-29z m-3 -66 c0 -23 -4 -30 -20 -30 -21 0 -31 25 -21 51 11 28 41 12 41 -21z"/>
<path d="M5997 482 c-25 -27 -23 -114 3 -137 19 -17 19 -17 3 25 -16 39 -16
46 -1 86 8 24 15 44 13 44 -1 0 -9 -8 -18 -18z"/>
<path d="M6055 478 c8 -13 15 -41 15 -63 0 -22 -7 -50 -15 -63 -13 -17 -13
-21 -2 -16 18 7 37 47 37 79 0 32 -19 72 -37 79 -11 5 -11 1 2 -16z"/>
<path d="M4550 480 c0 -5 5 -10 10 -10 6 0 10 5 10 10 0 6 -4 10 -10 10 -5 0
-10 -4 -10 -10z"/>
<path d="M5040 480 c0 -5 5 -10 10 -10 6 0 10 5 10 10 0 6 -4 10 -10 10 -5 0
-10 -4 -10 -10z"/>
<path d="M5220 480 c0 -5 5 -10 10 -10 6 0 10 5 10 10 0 6 -4 10 -10 10 -5 0
-10 -4 -10 -10z"/>
<path d="M5360 480 c0 -5 5 -10 10 -10 6 0 10 5 10 10 0 6 -4 10 -10 10 -5 0
-10 -4 -10 -10z"/>
<path d="M5590 480 c0 -5 5 -10 10 -10 6 0 10 5 10 10 0 6 -4 10 -10 10 -5 0
-10 -4 -10 -10z"/>
<path d="M4388 463 c-2 -10 -1 -36 2 -58 4 -31 9 -40 24 -40 11 0 20 6 22 13
1 7 0 8 -3 2 -10 -21 -23 -8 -23 24 0 24 5 36 18 39 16 4 16 5 0 6 -10 0 -18
8 -18 16 0 21 -17 19 -22 -2z"/>
<path d="M4468 463 c-2 -10 -1 -36 2 -58 4 -31 9 -40 24 -40 11 0 20 6 22 13
1 7 0 8 -3 2 -10 -21 -23 -8 -23 24 0 24 5 36 18 39 16 4 16 5 0 6 -10 0 -18
8 -18 16 0 21 -17 19 -22 -2z"/>
<path d="M5278 463 c-2 -10 -1 -36 2 -58 4 -31 9 -40 24 -40 11 0 20 6 22 13
1 7 0 8 -3 2 -10 -21 -23 -8 -23 24 0 24 5 36 18 39 16 4 16 5 0 6 -10 0 -18
8 -18 16 0 21 -17 19 -22 -2z"/>
<path d="M3862 438 c-28 -28 -7 -78 33 -78 27 0 45 18 45 45 0 27 -18 45 -45
45 -12 0 -26 -5 -33 -12z m53 -33 c0 -23 -4 -30 -20 -30 -21 0 -31 25 -21 51
11 28 41 12 41 -21z"/>
<path d="M3965 404 c0 -40 2 -44 25 -44 17 0 21 3 12 9 -20 12 -11 65 12 69
16 3 18 -1 14 -37 -3 -38 -2 -41 22 -41 15 0 20 3 13 8 -6 4 -13 23 -15 42 -3
33 -5 35 -43 37 l-40 2 0 -45z"/>
<path d="M4177 444 c-15 -15 -6 -32 23 -43 17 -5 30 -15 30 -20 0 -15 -33 -14
-49 2 -11 10 -13 9 -9 -3 6 -19 45 -25 63 -10 18 15 11 28 -21 40 -25 10 -33
30 -11 30 7 0 19 -6 26 -12 11 -11 13 -10 9 2 -5 16 -49 26 -61 14z"/>
<path d="M4282 438 c-7 -7 -12 -21 -12 -33 0 -43 54 -62 81 -28 13 15 12 15
-7 3 -22 -14 -54 -8 -54 10 0 5 16 10 35 10 22 0 35 5 35 13 0 19 -21 37 -45
37 -12 0 -26 -5 -33 -12z m56 -15 c2 -8 -6 -13 -22 -13 -25 0 -33 10 -19 24
10 10 36 3 41 -11z"/>
<path d="M4545 405 c0 -42 2 -45 25 -44 14 0 19 3 13 6 -8 2 -13 22 -13 44 0
25 -5 39 -12 39 -9 0 -13 -16 -13 -45z"/>
<path d="M4605 404 c0 -40 2 -44 25 -44 17 0 21 3 12 9 -20 12 -11 65 12 69
16 3 18 -1 14 -37 -3 -38 -2 -41 22 -41 15 0 20 3 13 8 -6 4 -13 23 -15 42 -3
33 -5 35 -43 37 l-40 2 0 -45z"/>
<path d="M4731 437 c-29 -29 0 -84 39 -74 13 3 20 0 20 -9 0 -21 -28 -28 -47
-13 -14 12 -16 12 -11 -1 6 -19 45 -25 64 -10 8 8 14 31 14 60 0 30 5 50 13
53 6 2 -9 5 -34 5 -26 0 -52 -5 -58 -11z m54 -32 c0 -23 -4 -30 -20 -30 -21 0
-31 25 -21 51 11 28 41 12 41 -21z"/>
<path d="M4847 444 c-15 -15 -6 -32 23 -43 17 -5 30 -15 30 -20 0 -15 -33 -14
-49 2 -11 10 -13 9 -9 -3 6 -19 45 -25 63 -10 18 15 11 28 -21 40 -25 10 -33
30 -11 30 7 0 19 -6 26 -12 11 -11 13 -10 9 2 -5 16 -49 26 -61 14z"/>
<path d="M5035 405 c0 -42 2 -45 25 -44 14 0 19 3 13 6 -8 2 -13 22 -13 44 0
25 -5 39 -12 39 -9 0 -13 -16 -13 -45z"/>
<path d="M5095 404 c0 -40 2 -44 25 -44 17 0 21 3 12 9 -20 12 -11 65 12 69
16 3 18 -1 14 -37 -3 -38 -2 -41 22 -41 15 0 20 3 13 8 -6 4 -13 23 -15 42 -3
33 -5 35 -43 37 l-40 2 0 -45z"/>
<path d="M5215 405 c0 -42 2 -45 25 -44 14 0 19 3 13 6 -8 2 -13 22 -13 44 0
25 -5 39 -12 39 -9 0 -13 -16 -13 -45z"/>
<path d="M5355 405 c0 -42 2 -45 25 -44 14 0 19 3 13 6 -8 2 -13 22 -13 44 0
25 -5 39 -12 39 -9 0 -13 -16 -13 -45z"/>
<path d="M5425 439 c-4 -6 -4 -13 -1 -16 3 -4 6 -1 6 5 0 17 37 15 43 -2 4
-11 -3 -16 -26 -18 -24 -2 -32 -8 -32 -23 0 -17 7 -20 50 -22 28 -1 44 0 38 3
-7 3 -13 21 -13 39 0 21 -6 35 -16 39 -23 9 -42 7 -49 -5z m53 -51 c-7 -20
-48 -23 -48 -4 0 11 9 16 26 16 16 0 24 -5 22 -12z"/>
<path d="M5585 405 c0 -42 2 -45 25 -44 14 0 19 3 13 6 -8 2 -13 22 -13 44 0
25 -5 39 -12 39 -9 0 -13 -16 -13 -45z"/>
<path d="M5641 433 c0 -11 3 -13 6 -5 2 6 16 12 31 12 l26 0 -32 -33 c-18 -18
-32 -36 -32 -40 0 -4 18 -7 40 -7 32 0 40 4 39 18 0 10 -3 12 -6 5 -2 -7 -16
-13 -30 -13 l-25 0 31 35 c17 20 31 38 31 40 0 3 -18 5 -40 5 -32 0 -40 -4
-39 -17z"/>
<path d="M5752 438 c-7 -7 -12 -21 -12 -33 0 -43 54 -62 81 -28 13 15 12 15
-7 3 -22 -14 -54 -8 -54 10 0 5 16 10 35 10 22 0 35 5 35 13 0 19 -21 37 -45
37 -12 0 -26 -5 -33 -12z m56 -15 c2 -8 -6 -13 -22 -13 -25 0 -33 10 -19 24
10 10 36 3 41 -11z"/>
<path d="M4093 323 c15 -2 39 -2 55 0 15 2 2 4 -28 4 -30 0 -43 -2 -27 -4z"/>
<path d="M4953 323 c15 -2 39 -2 55 0 15 2 2 4 -28 4 -30 0 -43 -2 -27 -4z"/>
<path d="M5487 282 c-25 -27 -23 -114 3 -137 19 -17 19 -17 3 25 -16 39 -16
46 -1 86 8 24 15 44 13 44 -1 0 -9 -8 -18 -18z"/>
<path d="M5598 271 c4 -26 2 -29 -17 -24 -27 7 -51 -13 -51 -42 0 -32 18 -43
70 -43 25 0 39 2 33 5 -9 3 -13 27 -13 69 0 46 -4 64 -13 64 -9 0 -12 -9 -9
-29z m-3 -66 c0 -23 -4 -30 -20 -30 -21 0 -31 25 -21 51 11 28 41 12 41 -21z"/>
<path d="M5965 278 c8 -13 15 -41 15 -63 0 -22 -7 -50 -15 -63 -13 -17 -13
-21 -2 -16 18 7 37 47 37 79 0 32 -19 72 -37 79 -11 5 -11 1 2 -16z"/>
<path d="M4550 280 c0 -5 5 -10 10 -10 6 0 10 5 10 10 0 6 -4 10 -10 10 -5 0
-10 -4 -10 -10z"/>
<path d="M4388 263 c-2 -10 -1 -36 2 -58 4 -31 9 -40 24 -40 11 0 20 6 22 13
1 7 0 8 -3 2 -10 -21 -23 -8 -23 24 0 24 5 36 18 39 16 4 16 5 0 6 -10 0 -18
8 -18 16 0 21 -17 19 -22 -2z"/>
<path d="M4468 263 c-2 -10 -1 -36 2 -58 4 -31 9 -40 24 -40 11 0 20 6 22 13
1 7 0 8 -3 2 -10 -21 -23 -8 -23 24 0 24 5 36 18 39 16 4 16 5 0 6 -10 0 -18
8 -18 16 0 21 -17 19 -22 -2z"/>
<path d="M5768 263 c-2 -10 -1 -36 2 -58 4 -31 9 -40 24 -40 11 0 20 6 22 13
1 7 0 8 -3 2 -10 -21 -23 -8 -23 24 0 24 5 36 18 39 16 4 16 5 0 6 -10 0 -18
8 -18 16 0 21 -17 19 -22 -2z"/>
<path d="M3862 238 c-28 -28 -7 -78 33 -78 27 0 45 18 45 45 0 27 -18 45 -45
45 -12 0 -26 -5 -33 -12z m53 -33 c0 -23 -4 -30 -20 -30 -21 0 -31 25 -21 51
11 28 41 12 41 -21z"/>
<path d="M3965 204 c0 -40 2 -44 25 -44 17 0 21 3 12 9 -20 12 -11 65 12 69
16 3 18 -1 14 -37 -3 -38 -2 -41 22 -41 15 0 20 3 13 8 -6 4 -13 23 -15 42 -3
33 -5 35 -43 37 l-40 2 0 -45z"/>
<path d="M4177 244 c-15 -15 -6 -32 23 -43 17 -5 30 -15 30 -20 0 -15 -33 -14
-49 2 -11 10 -13 9 -9 -3 6 -19 45 -25 63 -10 18 15 11 28 -21 40 -25 10 -33
30 -11 30 7 0 19 -6 26 -12 11 -11 13 -10 9 2 -5 16 -49 26 -61 14z"/>
<path d="M4282 238 c-7 -7 -12 -21 -12 -33 0 -43 54 -62 81 -28 13 15 12 15
-7 3 -22 -14 -54 -8 -54 10 0 5 16 10 35 10 22 0 35 5 35 13 0 19 -21 37 -45
37 -12 0 -26 -5 -33 -12z m56 -15 c2 -8 -6 -13 -22 -13 -25 0 -33 10 -19 24
10 10 36 3 41 -11z"/>
<path d="M4545 205 c0 -42 2 -45 25 -44 14 0 19 3 13 6 -8 2 -13 22 -13 44 0
25 -5 39 -12 39 -9 0 -13 -16 -13 -45z"/>
<path d="M4605 204 c0 -40 2 -44 25 -44 17 0 21 3 12 9 -20 12 -11 65 12 69
16 3 18 -1 14 -37 -3 -38 -2 -41 22 -41 15 0 20 3 13 8 -6 4 -13 23 -15 42 -3
33 -5 35 -43 37 l-40 2 0 -45z"/>
<path d="M4731 237 c-29 -29 0 -84 39 -74 13 3 20 0 20 -9 0 -21 -28 -28 -47
-13 -14 12 -16 12 -11 -1 6 -19 45 -25 64 -10 8 8 14 31 14 60 0 30 5 50 13
53 6 2 -9 5 -34 5 -26 0 -52 -5 -58 -11z m54 -32 c0 -23 -4 -30 -20 -30 -21 0
-31 25 -21 51 11 28 41 12 41 -21z"/>
<path d="M4847 244 c-15 -15 -6 -32 23 -43 17 -5 30 -15 30 -20 0 -15 -33 -14
-49 2 -11 10 -13 9 -9 -3 6 -19 45 -25 63 -10 18 15 11 28 -21 40 -25 10 -33
30 -11 30 7 0 19 -6 26 -12 11 -11 13 -10 9 2 -5 16 -49 26 -61 14z"/>
<path d="M5037 244 c-15 -15 -6 -32 23 -43 17 -5 30 -15 30 -20 0 -15 -33 -14
-49 2 -11 10 -13 9 -9 -3 6 -19 45 -25 63 -10 18 15 11 28 -21 40 -25 10 -33
30 -11 30 7 0 19 -6 26 -12 11 -11 13 -10 9 2 -5 16 -49 26 -61 14z"/>
<path d="M5145 239 c-4 -6 -4 -13 -1 -16 3 -4 6 -1 6 5 0 17 37 15 43 -2 4
-11 -3 -16 -26 -18 -24 -2 -32 -8 -32 -23 0 -17 7 -20 50 -22 28 -1 44 0 38 3
-7 3 -13 21 -13 39 0 21 -6 35 -16 39 -23 9 -42 7 -49 -5z m53 -51 c-7 -20
-48 -23 -48 -4 0 11 9 16 26 16 16 0 24 -5 22 -12z"/>
<path d="M5254 205 c12 -24 25 -44 29 -45 4 0 15 17 24 38 8 20 20 40 27 44 6
5 1 8 -12 8 -13 0 -20 -4 -17 -10 3 -5 0 -22 -8 -36 l-14 -27 -11 31 c-6 17
-8 33 -5 36 4 3 -3 6 -14 6 -20 0 -20 0 1 -45z"/>
<path d="M5362 238 c-7 -7 -12 -21 -12 -33 0 -43 54 -62 81 -28 13 15 12 15
-7 3 -22 -14 -54 -8 -54 10 0 5 16 10 35 10 22 0 35 5 35 13 0 19 -21 37 -45
37 -12 0 -26 -5 -33 -12z m56 -15 c2 -8 -6 -13 -22 -13 -25 0 -33 10 -19 24
10 10 36 3 41 -11z"/>
<path d="M5665 239 c-4 -6 -4 -13 -1 -16 3 -4 6 -1 6 5 0 17 37 15 43 -2 4
-11 -3 -16 -26 -18 -24 -2 -32 -8 -32 -23 0 -17 7 -20 50 -22 28 -1 44 0 38 3
-7 3 -13 21 -13 39 0 21 -6 35 -16 39 -23 9 -42 7 -49 -5z m53 -51 c-7 -20
-48 -23 -48 -4 0 11 9 16 26 16 16 0 24 -5 22 -12z"/>
<path d="M5855 239 c-4 -6 -4 -13 -1 -16 3 -4 6 -1 6 5 0 17 37 15 43 -2 4
-11 -3 -16 -26 -18 -24 -2 -32 -8 -32 -23 0 -17 7 -20 50 -22 28 -1 44 0 38 3
-7 3 -13 21 -13 39 0 21 -6 35 -16 39 -23 9 -42 7 -49 -5z m53 -51 c-7 -20
-48 -23 -48 -4 0 11 9 16 26 16 16 0 24 -5 22 -12z"/>
<path d="M4093 123 c15 -2 39 -2 55 0 15 2 2 4 -28 4 -30 0 -43 -2 -27 -4z"/>
<path d="M4953 123 c15 -2 39 -2 55 0 15 2 2 4 -28 4 -30 0 -43 -2 -27 -4z"/>
<path d="M14610 3565 l0 -465 440 0 c242 0 440 -3 440 -7 0 -5 -9 -19 -20 -33
-25 -32 -25 -34 5 -78 l25 -37 0 -617 0 -618 -595 0 -595 0 0 -480 0 -480
1200 0 1200 0 0 480 0 480 -600 0 -600 0 0 616 0 615 29 42 29 42 -24 35 -24
35 445 3 445 2 0 465 0 465 -900 0 -900 0 0 -465z m1780 310 l0 -145 -885 0
-885 0 0 145 0 145 885 0 885 0 0 -145z m0 -310 l0 -145 -885 0 -885 0 0 145
0 145 885 0 885 0 0 -145z m0 -305 l0 -150 -885 0 -885 0 0 150 0 150 885 0
885 0 0 -150z m-840 -233 c0 -5 -10 -23 -22 -39 -20 -29 -22 -30 -35 -12 -31
41 -32 49 -10 83 l21 34 23 -29 c13 -16 23 -33 23 -37z m1140 -1477 l0 -150
-1185 0 -1185 0 0 150 0 150 1185 0 1185 0 0 -150z m0 -320 l0 -160 -1185 0
-1185 0 0 160 0 160 1185 0 1185 0 0 -160z m0 -315 l0 -145 -1185 0 -1185 0 0
145 0 145 1185 0 1185 0 0 -145z"/>
<path d="M14840 3948 c-11 -12 -20 -34 -20 -48 0 -33 34 -70 63 -70 41 0 67
27 67 70 0 64 -67 94 -110 48z m78 0 c7 -7 12 -28 12 -48 0 -20 -5 -41 -12
-48 -30 -30 -78 0 -78 48 0 48 48 78 78 48z"/>
<path d="M15268 3964 c7 -4 12 -27 12 -64 0 -37 -5 -60 -12 -63 -7 -3 3 -5 22
-5 19 0 29 2 23 5 -7 2 -13 15 -13 28 0 18 6 24 26 27 35 4 53 31 38 56 -8 12
-26 18 -60 19 -27 1 -43 0 -36 -3z m77 -34 c0 -18 -6 -26 -22 -28 -20 -3 -23
1 -23 28 0 27 3 31 23 28 16 -2 22 -10 22 -28z"/>
<path d="M15763 3963 c-7 -2 -13 -16 -13 -29 0 -18 9 -28 38 -41 20 -10 37
-25 37 -33 0 -23 -46 -25 -63 -3 -13 17 -14 17 -10 -2 4 -27 59 -33 82 -9 23
22 16 35 -28 59 -21 11 -38 23 -37 28 0 4 1 12 1 17 0 16 32 12 52 -7 16 -14
18 -14 18 -1 0 24 -43 35 -77 21z"/>
<path d="M16075 3901 l0 -69 35 0 c42 0 60 13 60 43 0 29 -24 49 -50 42 -17
-4 -20 0 -20 24 0 17 -5 29 -12 29 -9 0 -13 -20 -13 -69z m70 -26 c0 -23 -4
-30 -20 -30 -21 0 -31 25 -21 51 11 28 41 12 41 -21z"/>
<path d="M15490 3950 c0 -5 5 -10 10 -10 6 0 10 5 10 10 0 6 -4 10 -10 10 -5
0 -10 -4 -10 -10z"/>
<path d="M15078 3933 c-2 -10 -1 -36 2 -58 4 -31 9 -40 24 -40 11 0 20 6 22
13 1 7 0 8 -3 2 -10 -21 -23 -8 -23 24 0 24 5 36 18 39 16 4 16 5 0 6 -10 0
-18 8 -18 16 0 21 -17 19 -22 -2z"/>
<path d="M15668 3933 c-2 -10 -1 -36 2 -58 4 -31 9 -40 24 -40 11 0 20 6 22
13 1 7 0 8 -3 2 -10 -21 -23 -8 -23 24 0 24 5 36 18 39 16 4 16 5 0 6 -10 0
-18 8 -18 16 0 21 -17 19 -22 -2z"/>
<path d="M15878 3933 c-2 -10 -1 -36 2 -58 4 -31 9 -40 24 -40 11 0 20 6 22
13 1 7 0 8 -3 2 -10 -21 -23 -8 -23 24 0 24 5 36 18 39 16 4 16 5 0 6 -10 0
-18 8 -18 16 0 21 -17 19 -22 -2z"/>
<path d="M14982 3908 c-15 -15 -16 -50 0 -66 17 -17 53 -15 68 3 14 17 0 21
-17 4 -20 -20 -45 -2 -41 28 3 31 34 44 50 21 8 -10 9 -10 5 2 -5 19 -48 25
-65 8z"/>
<path d="M15162 3908 c-28 -28 -7 -78 33 -78 27 0 45 18 45 45 0 27 -18 45
-45 45 -12 0 -26 -5 -33 -12z m53 -33 c0 -23 -4 -30 -20 -30 -21 0 -31 25 -21
51 11 28 41 12 41 -21z"/>
<path d="M15395 3874 c0 -40 2 -44 25 -44 17 0 21 3 12 9 -8 5 -12 21 -10 37
2 23 8 29 26 28 12 0 22 3 22 7 0 4 -17 8 -37 7 l-38 0 0 -44z"/>
<path d="M15485 3875 c0 -42 2 -45 25 -44 14 0 19 3 13 6 -8 2 -13 22 -13 44
0 25 -5 39 -12 39 -9 0 -13 -16 -13 -45z"/>
<path d="M15545 3874 c0 -40 2 -44 25 -44 17 0 21 3 12 9 -20 12 -11 65 12 69
16 3 18 -1 14 -37 -3 -38 -2 -41 22 -41 15 0 20 3 13 8 -6 4 -13 23 -15 42 -3
33 -5 35 -43 37 l-40 2 0 -45z"/>
<path d="M15959 3878 l6 -43 50 -2 c28 0 44 1 38 4 -8 3 -13 22 -13 44 0 24
-5 39 -12 39 -8 0 -13 -14 -13 -37 0 -28 -5 -38 -17 -41 -15 -3 -18 4 -18 37
0 27 -4 41 -13 41 -10 0 -12 -11 -8 -42z"/>
<path d="M16197 3914 c-15 -15 -6 -32 23 -43 17 -5 30 -15 30 -20 0 -15 -33
-14 -49 2 -11 10 -13 9 -9 -3 6 -19 45 -25 63 -10 18 15 11 28 -21 40 -25 10
-33 30 -11 30 7 0 19 -6 26 -12 11 -11 13 -10 9 2 -5 16 -49 26 -61 14z"/>
<path d="M14743 3793 c15 -2 39 -2 55 0 15 2 2 4 -28 4 -30 0 -43 -2 -27 -4z"/>
<path d="M15335 3590 c0 -68 1 -70 25 -69 14 0 19 3 13 6 -9 3 -13 27 -13 69
0 45 -4 64 -12 64 -9 0 -13 -21 -13 -70z"/>
<path d="M15640 3640 c0 -5 5 -10 10 -10 6 0 10 5 10 10 0 6 -4 10 -10 10 -5
0 -10 -4 -10 -10z"/>
<path d="M15215 3544 c0 -62 1 -64 25 -63 14 0 19 3 13 6 -7 2 -13 13 -13 23
0 13 5 17 20 13 26 -7 50 13 50 42 0 30 -18 43 -60 43 l-35 0 0 -64z m70 21
c0 -23 -4 -30 -20 -30 -21 0 -31 25 -21 51 11 28 41 12 41 -21z"/>
<path d="M15399 3568 l6 -43 50 -2 c28 0 44 1 38 4 -8 3 -13 22 -13 44 0 24
-5 39 -12 39 -8 0 -13 -14 -13 -37 0 -28 -5 -38 -17 -41 -15 -3 -18 4 -18 37
0 27 -4 41 -13 41 -10 0 -12 -11 -8 -42z"/>
<path d="M15521 3597 c-29 -29 0 -84 39 -74 13 3 20 0 20 -9 0 -21 -28 -28
-47 -13 -14 12 -16 12 -11 -1 6 -19 45 -25 64 -10 8 8 14 31 14 60 0 30 5 50
13 53 6 2 -9 5 -34 5 -26 0 -52 -5 -58 -11z m54 -32 c0 -23 -4 -30 -20 -30
-21 0 -31 25 -21 51 11 28 41 12 41 -21z"/>
<path d="M15635 3565 c0 -42 2 -45 25 -44 14 0 19 3 13 6 -8 2 -13 22 -13 44
0 25 -5 39 -12 39 -9 0 -13 -16 -13 -45z"/>
<path d="M15695 3564 c0 -40 2 -44 25 -44 17 0 21 3 12 9 -20 12 -11 65 12 69
16 3 18 -1 14 -37 -3 -38 -2 -41 22 -41 15 0 20 3 13 8 -6 4 -13 23 -15 42 -3
33 -5 35 -43 37 l-40 2 0 -45z"/>
<path d="M14540 1618 c-11 -12 -20 -34 -20 -48 0 -33 34 -70 63 -70 41 0 67
27 67 70 0 64 -67 94 -110 48z m78 0 c7 -7 12 -28 12 -48 0 -20 -5 -41 -12
-48 -30 -30 -78 0 -78 48 0 48 48 78 78 48z"/>
<path d="M14968 1634 c7 -4 12 -27 12 -64 0 -37 -5 -60 -12 -63 -7 -3 3 -5 22
-5 19 0 29 2 23 5 -7 2 -13 15 -13 28 0 18 6 24 26 27 35 4 53 31 38 56 -8 12
-26 18 -60 19 -27 1 -43 0 -36 -3z m77 -34 c0 -18 -6 -26 -22 -28 -20 -3 -23
1 -23 28 0 27 3 31 23 28 16 -2 22 -10 22 -28z"/>
<path d="M15448 1634 c7 -4 12 -27 12 -64 0 -37 -5 -60 -12 -63 -7 -3 3 -5 22
-5 19 0 29 2 23 5 -7 2 -13 15 -13 28 0 18 6 24 26 27 35 4 53 31 38 56 -8 12
-26 18 -60 19 -27 1 -43 0 -36 -3z m77 -34 c0 -18 -6 -26 -22 -28 -20 -3 -23
1 -23 28 0 27 3 31 23 28 16 -2 22 -10 22 -28z"/>
<path d="M15575 1570 c0 -68 1 -70 25 -69 14 0 19 3 13 6 -9 3 -13 27 -13 69
0 45 -4 64 -12 64 -9 0 -13 -21 -13 -70z"/>
<path d="M16073 1633 c-7 -2 -13 -16 -13 -29 0 -18 9 -28 38 -41 20 -10 37
-25 37 -33 0 -23 -46 -25 -63 -3 -13 17 -14 17 -10 -2 4 -27 59 -33 82 -9 23
22 16 35 -28 59 -21 11 -38 23 -37 28 0 4 1 12 1 17 0 16 32 12 52 -7 16 -14
18 -14 18 -1 0 24 -43 35 -77 21z"/>
<path d="M16385 1571 l0 -69 35 0 c42 0 60 13 60 43 0 29 -24 49 -50 42 -17
-4 -20 0 -20 24 0 17 -5 29 -12 29 -9 0 -13 -20 -13 -69z m70 -26 c0 -23 -4
-30 -20 -30 -21 0 -31 25 -21 51 11 28 41 12 41 -21z"/>
<path d="M15190 1620 c0 -5 5 -10 10 -10 6 0 10 5 10 10 0 6 -4 10 -10 10 -5
0 -10 -4 -10 -10z"/>
<path d="M15880 1620 c0 -5 5 -10 10 -10 6 0 10 5 10 10 0 6 -4 10 -10 10 -5
0 -10 -4 -10 -10z"/>
<path d="M14778 1603 c-2 -10 -1 -36 2 -58 4 -31 9 -40 24 -40 11 0 20 6 22
13 1 7 0 8 -3 2 -10 -21 -23 -8 -23 24 0 24 5 36 18 39 16 4 16 5 0 6 -10 0
-18 8 -18 16 0 21 -17 19 -22 -2z"/>
<path d="M15368 1603 c-2 -10 -1 -36 2 -58 4 -31 9 -40 24 -40 11 0 20 6 22
13 1 7 0 8 -3 2 -10 -21 -23 -8 -23 24 0 24 5 36 18 39 16 4 16 5 0 6 -10 0
-18 8 -18 16 0 21 -17 19 -22 -2z"/>
<path d="M16188 1603 c-2 -10 -1 -36 2 -58 4 -31 9 -40 24 -40 11 0 20 6 22
13 1 7 0 8 -3 2 -10 -21 -23 -8 -23 24 0 24 5 36 18 39 16 4 16 5 0 6 -10 0
-18 8 -18 16 0 21 -17 19 -22 -2z"/>
<path d="M14682 1578 c-15 -15 -16 -50 0 -66 17 -17 53 -15 68 3 14 17 0 21
-17 4 -20 -20 -45 -2 -41 28 3 31 34 44 50 21 8 -10 9 -10 5 2 -5 19 -48 25
-65 8z"/>
<path d="M14862 1578 c-28 -28 -7 -78 33 -78 27 0 45 18 45 45 0 27 -18 45
-45 45 -12 0 -26 -5 -33 -12z m53 -33 c0 -23 -4 -30 -20 -30 -21 0 -31 25 -21
51 11 28 41 12 41 -21z"/>
<path d="M15095 1544 c0 -40 2 -44 25 -44 17 0 21 3 12 9 -8 5 -12 21 -10 37
2 23 8 29 26 28 12 0 22 3 22 7 0 4 -17 8 -37 7 l-38 0 0 -44z"/>
<path d="M15185 1545 c0 -42 2 -45 25 -44 14 0 19 3 13 6 -8 2 -13 22 -13 44
0 25 -5 39 -12 39 -9 0 -13 -16 -13 -45z"/>
<path d="M15245 1544 c0 -40 2 -44 25 -44 17 0 21 3 12 9 -20 12 -11 65 12 69
16 3 18 -1 14 -37 -3 -38 -2 -41 22 -41 15 0 20 3 13 8 -6 4 -13 23 -15 42 -3
33 -5 35 -43 37 l-40 2 0 -45z"/>
<path d="M15639 1548 l6 -43 50 -2 c28 0 44 1 38 4 -8 3 -13 22 -13 44 0 24
-5 39 -12 39 -8 0 -13 -14 -13 -37 0 -28 -5 -38 -17 -41 -15 -3 -18 4 -18 37
0 27 -4 41 -13 41 -10 0 -12 -11 -8 -42z"/>
<path d="M15761 1577 c-29 -29 0 -84 39 -74 13 3 20 0 20 -9 0 -21 -28 -28
-47 -13 -14 12 -16 12 -11 -1 6 -19 45 -25 64 -10 8 8 14 31 14 60 0 30 5 50
13 53 6 2 -9 5 -34 5 -26 0 -52 -5 -58 -11z m54 -32 c0 -23 -4 -30 -20 -30
-21 0 -31 25 -21 51 11 28 41 12 41 -21z"/>
<path d="M15875 1545 c0 -42 2 -45 25 -44 14 0 19 3 13 6 -8 2 -13 22 -13 44
0 25 -5 39 -12 39 -9 0 -13 -16 -13 -45z"/>
<path d="M15935 1544 c0 -40 2 -44 25 -44 17 0 21 3 12 9 -20 12 -11 65 12 69
16 3 18 -1 14 -37 -3 -38 -2 -41 22 -41 15 0 20 3 13 8 -6 4 -13 23 -15 42 -3
33 -5 35 -43 37 l-40 2 0 -45z"/>
<path d="M16269 1548 l6 -43 50 -2 c28 0 44 1 38 4 -8 3 -13 22 -13 44 0 24
-5 39 -12 39 -8 0 -13 -14 -13 -37 0 -28 -5 -38 -17 -41 -15 -3 -18 4 -18 37
0 27 -4 41 -13 41 -10 0 -12 -11 -8 -42z"/>
<path d="M16507 1584 c-15 -15 -6 -32 23 -43 17 -5 30 -15 30 -20 0 -15 -33
-14 -49 2 -11 10 -13 9 -9 -3 6 -19 45 -25 63 -10 18 15 11 28 -21 40 -25 10
-33 30 -11 30 7 0 19 -6 26 -12 11 -11 13 -10 9 2 -5 16 -49 26 -61 14z"/>
<path d="M14443 1463 c15 -2 39 -2 55 0 15 2 2 4 -28 4 -30 0 -43 -2 -27 -4z"/>
<path d="M15645 2770 c0 -56 3 -70 15 -70 12 0 14 13 12 70 -5 96 -27 96 -27
0z"/>
<path d="M15525 2725 c0 -51 3 -65 15 -65 21 0 19 124 -1 128 -11 2 -14 -13
-14 -63z"/>
<path d="M15583 2779 c9 -5 17 -21 17 -34 0 -13 -8 -29 -17 -34 -15 -9 -15
-10 -2 -11 39 0 54 61 20 80 -25 13 -42 13 -18 -1z"/>
<path d="M15708 2755 c4 -37 24 -60 44 -52 8 4 7 6 -4 6 -14 1 -18 10 -18 41
0 26 -5 40 -13 40 -9 0 -12 -11 -9 -35z"/>
<path d="M15768 2745 c2 -25 9 -45 16 -45 7 0 10 16 8 45 -2 25 -9 45 -16 45
-7 0 -10 -16 -8 -45z"/>
<path d="M15836 2774 c-9 -8 -16 -22 -16 -29 0 -19 28 -45 48 -44 12 0 11 3
-5 9 -16 6 -23 18 -23 35 0 17 7 29 23 35 16 6 17 9 5 9 -9 1 -24 -6 -32 -15z"/>
<path d="M15895 2778 c-2 -7 -4 -26 -3 -43 0 -51 -1 -55 -24 -65 -13 -5 -16
-9 -8 -9 31 -1 44 18 50 73 3 31 2 56 -2 56 -5 0 -10 -6 -13 -12z"/>
<path d="M15948 2783 c6 -2 12 -20 12 -38 0 -18 -6 -36 -12 -38 -7 -3 -4 -6 7
-6 18 -1 20 4 17 44 -3 34 -8 45 -21 44 -10 0 -11 -2 -3 -6z"/>
<path d="M16008 2783 c6 -2 12 -20 12 -38 0 -18 -6 -36 -12 -38 -7 -3 -4 -6 7
-6 18 -1 20 4 17 44 -3 34 -8 45 -21 44 -10 0 -11 -2 -3 -6z"/>
<path d="M16063 2779 c20 -12 23 -65 5 -72 -7 -3 -4 -6 7 -6 18 -1 20 4 17 37
-4 36 -16 52 -37 52 -5 -1 -2 -5 8 -11z"/>
<path d="M2130 1230 l0 -480 680 0 680 0 0 480 0 480 -680 0 -680 0 0 -480z
m1350 320 l0 -150 -665 0 -665 0 0 150 0 150 665 0 665 0 0 -150z m0 -320 l0
-160 -665 0 -665 0 0 160 0 160 665 0 665 0 0 -160z m0 -315 l0 -145 -665 0
-665 0 0 145 0 145 665 0 665 0 0 -145z"/>
<path d="M2299 1613 c-24 -67 -33 -89 -42 -100 -7 -10 -3 -13 14 -13 15 0 19
3 12 8 -20 13 2 34 33 30 20 -2 29 -8 28 -20 -1 -14 8 -17 50 -16 75 0 97 27
40 48 -25 10 -33 30 -11 30 7 0 19 -6 26 -12 11 -11 13 -10 9 2 -7 21 -62 20
-66 -1 -2 -11 8 -20 27 -27 17 -6 31 -16 31 -21 0 -15 -33 -14 -48 1 -9 9 -12
9 -12 0 0 -31 -18 -6 -39 53 -13 36 -27 65 -32 65 -5 0 -14 -12 -20 -27z m19
-61 c-28 -5 -31 1 -16 33 l12 28 12 -29 c11 -26 10 -29 -8 -32z"/>
<path d="M2788 1634 c7 -4 12 -27 12 -64 0 -37 -5 -60 -12 -63 -7 -3 3 -5 22
-5 19 0 29 2 23 5 -7 2 -13 15 -13 28 0 18 6 24 26 27 35 4 53 31 38 56 -8 12
-26 18 -60 19 -27 1 -43 0 -36 -3z m77 -34 c0 -18 -6 -26 -22 -28 -20 -3 -23
1 -23 28 0 27 3 31 23 28 16 -2 22 -10 22 -28z"/>
<path d="M2915 1570 c0 -68 1 -70 25 -69 14 0 19 3 13 6 -9 3 -13 27 -13 69 0
45 -4 64 -12 64 -9 0 -13 -21 -13 -70z"/>
<path d="M3220 1620 c0 -5 5 -10 10 -10 6 0 10 5 10 10 0 6 -4 10 -10 10 -5 0
-10 -4 -10 -10z"/>
<path d="M2708 1603 c-2 -10 -1 -36 2 -58 4 -31 9 -40 24 -40 11 0 20 6 22 13
1 7 0 8 -3 2 -10 -21 -23 -8 -23 24 0 24 5 36 18 39 16 4 16 5 0 6 -10 0 -18
8 -18 16 0 21 -17 19 -22 -2z"/>
<path d="M2497 1584 c-15 -15 -6 -32 23 -43 17 -5 30 -15 30 -20 0 -15 -33
-14 -49 2 -11 10 -13 9 -9 -3 6 -19 45 -25 63 -10 18 15 11 28 -21 40 -25 10
-33 30 -11 30 7 0 19 -6 26 -12 11 -11 13 -10 9 2 -5 16 -49 26 -61 14z"/>
<path d="M2602 1578 c-7 -7 -12 -21 -12 -33 0 -43 54 -62 81 -28 13 15 12 15
-7 3 -22 -14 -54 -8 -54 10 0 5 16 10 35 10 22 0 35 5 35 13 0 19 -21 37 -45
37 -12 0 -26 -5 -33 -12z m56 -15 c2 -8 -6 -13 -22 -13 -25 0 -33 10 -19 24
10 10 36 3 41 -11z"/>
<path d="M2979 1548 l6 -43 50 -2 c28 0 44 1 38 4 -8 3 -13 22 -13 44 0 24 -5
39 -12 39 -8 0 -13 -14 -13 -37 0 -28 -5 -38 -17 -41 -15 -3 -18 4 -18 37 0
27 -4 41 -13 41 -10 0 -12 -11 -8 -42z"/>
<path d="M3101 1577 c-29 -29 0 -84 39 -74 13 3 20 0 20 -9 0 -21 -28 -28 -47
-13 -14 12 -16 12 -11 -1 6 -19 45 -25 64 -10 8 8 14 31 14 60 0 30 5 50 13
53 6 2 -9 5 -34 5 -26 0 -52 -5 -58 -11z m54 -32 c0 -23 -4 -30 -20 -30 -21 0
-31 25 -21 51 11 28 41 12 41 -21z"/>
<path d="M3215 1545 c0 -42 2 -45 25 -44 14 0 19 3 13 6 -8 2 -13 22 -13 44 0
25 -5 39 -12 39 -9 0 -13 -16 -13 -45z"/>
<path d="M3275 1544 c0 -40 2 -44 25 -44 17 0 21 3 12 9 -20 12 -11 65 12 69
16 3 18 -1 14 -37 -3 -38 -2 -41 22 -41 15 0 20 3 13 8 -6 4 -13 23 -15 42 -3
33 -5 35 -43 37 l-40 2 0 -45z"/>
<path d="M6720 1230 l0 -480 1680 0 1680 0 0 480 0 480 -1680 0 -1680 0 0
-480z m3345 320 l0 -145 -1665 0 -1665 0 -3 134 c-1 74 0 141 2 148 4 11 309
13 1668 11 l1663 -3 0 -145z m5 -320 l0 -160 -1670 0 -1670 0 0 160 0 160
1670 0 1670 0 0 -160z m0 -315 l0 -145 -1670 0 -1670 0 0 145 0 145 1670 0
1670 0 0 -145z"/>
<path d="M7723 1633 c-7 -2 -13 -16 -13 -29 0 -18 9 -28 38 -41 20 -10 37 -25
37 -33 0 -23 -46 -25 -63 -3 -13 17 -14 17 -10 -2 4 -27 59 -33 82 -9 23 22
16 35 -28 59 -21 11 -38 23 -37 28 0 4 1 12 1 17 0 16 32 12 52 -7 16 -14 18
-14 18 -1 0 24 -43 35 -77 21z"/>
<path d="M8508 1634 c7 -4 12 -27 12 -64 0 -37 -5 -60 -12 -63 -7 -3 3 -5 22
-5 19 0 29 2 23 5 -7 2 -13 15 -13 28 0 18 6 24 26 27 35 4 53 31 38 56 -8 12
-26 18 -60 19 -27 1 -43 0 -36 -3z m77 -34 c0 -18 -6 -26 -22 -28 -20 -3 -23
1 -23 28 0 27 3 31 23 28 16 -2 22 -10 22 -28z"/>
<path d="M8635 1570 c0 -68 1 -70 25 -69 14 0 19 3 13 6 -9 3 -13 27 -13 69 0
45 -4 64 -12 64 -9 0 -13 -21 -13 -70z"/>
<path d="M8110 1620 c0 -5 5 -10 10 -10 6 0 10 5 10 10 0 6 -4 10 -10 10 -5 0
-10 -4 -10 -10z"/>
<path d="M8940 1620 c0 -5 5 -10 10 -10 6 0 10 5 10 10 0 6 -4 10 -10 10 -5 0
-10 -4 -10 -10z"/>
<path d="M7948 1603 c-2 -10 -1 -36 2 -58 4 -31 9 -40 24 -40 11 0 20 6 22 13
1 7 0 8 -3 2 -10 -21 -23 -8 -23 24 0 24 5 36 18 39 16 4 16 5 0 6 -10 0 -18
8 -18 16 0 21 -17 19 -22 -2z"/>
<path d="M8028 1603 c-2 -10 -1 -36 2 -58 4 -31 9 -40 24 -40 11 0 20 6 22 13
1 7 0 8 -3 2 -10 -21 -23 -8 -23 24 0 24 5 36 18 39 16 4 16 5 0 6 -10 0 -18
8 -18 16 0 21 -17 19 -22 -2z"/>
<path d="M7842 1578 c-7 -7 -12 -21 -12 -33 0 -43 54 -62 81 -28 13 15 12 15
-7 3 -22 -14 -54 -8 -54 10 0 5 16 10 35 10 22 0 35 5 35 13 0 19 -21 37 -45
37 -12 0 -26 -5 -33 -12z m56 -15 c2 -8 -6 -13 -22 -13 -25 0 -33 10 -19 24
10 10 36 3 41 -11z"/>
<path d="M8105 1545 c0 -42 2 -45 25 -44 14 0 19 3 13 6 -8 2 -13 22 -13 44 0
25 -5 39 -12 39 -9 0 -13 -16 -13 -45z"/>
<path d="M8165 1544 c0 -40 2 -44 25 -44 17 0 21 3 12 9 -20 12 -11 65 12 69
16 3 18 -1 14 -37 -3 -38 -2 -41 22 -41 15 0 20 3 13 8 -6 4 -13 23 -15 42 -3
33 -5 35 -43 37 l-40 2 0 -45z"/>
<path d="M8291 1577 c-29 -29 0 -84 39 -74 13 3 20 0 20 -9 0 -21 -28 -28 -47
-13 -14 12 -16 12 -11 -1 6 -19 45 -25 64 -10 8 8 14 31 14 60 0 30 5 50 13
53 6 2 -9 5 -34 5 -26 0 -52 -5 -58 -11z m54 -32 c0 -23 -4 -30 -20 -30 -21 0
-31 25 -21 51 11 28 41 12 41 -21z"/>
<path d="M8407 1584 c-15 -15 -6 -32 23 -43 17 -5 30 -15 30 -20 0 -15 -33
-14 -49 2 -11 10 -13 9 -9 -3 6 -19 45 -25 63 -10 18 15 11 28 -21 40 -25 10
-33 30 -11 30 7 0 19 -6 26 -12 11 -11 13 -10 9 2 -5 16 -49 26 -61 14z"/>
<path d="M8699 1548 l6 -43 50 -2 c28 0 44 1 38 4 -8 3 -13 22 -13 44 0 24 -5
39 -12 39 -8 0 -13 -14 -13 -37 0 -28 -5 -38 -17 -41 -15 -3 -18 4 -18 37 0
27 -4 41 -13 41 -10 0 -12 -11 -8 -42z"/>
<path d="M8821 1577 c-29 -29 0 -84 39 -74 13 3 20 0 20 -9 0 -21 -28 -28 -47
-13 -14 12 -16 12 -11 -1 6 -19 45 -25 64 -10 8 8 14 31 14 60 0 30 5 50 13
53 6 2 -9 5 -34 5 -26 0 -52 -5 -58 -11z m54 -32 c0 -23 -4 -30 -20 -30 -21 0
-31 25 -21 51 11 28 41 12 41 -21z"/>
<path d="M8935 1545 c0 -42 2 -45 25 -44 14 0 19 3 13 6 -8 2 -13 22 -13 44 0
25 -5 39 -12 39 -9 0 -13 -16 -13 -45z"/>
<path d="M8995 1544 c0 -40 2 -44 25 -44 17 0 21 3 12 9 -20 12 -11 65 12 69
16 3 18 -1 14 -37 -3 -38 -2 -41 22 -41 15 0 20 3 13 8 -6 4 -13 23 -15 42 -3
33 -5 35 -43 37 l-40 2 0 -45z"/>
<path d="M8477 982 c-25 -27 -23 -114 3 -137 19 -17 19 -17 3 25 -16 39 -16
46 -1 86 8 24 15 44 13 44 -1 0 -9 -8 -18 -18z"/>
<path d="M8588 971 c4 -26 2 -29 -17 -24 -27 7 -51 -13 -51 -42 0 -32 18 -43
70 -43 25 0 39 2 33 5 -9 3 -13 27 -13 69 0 46 -4 64 -13 64 -9 0 -12 -9 -9
-29z m-3 -66 c0 -23 -4 -30 -20 -30 -21 0 -31 25 -21 51 11 28 41 12 41 -21z"/>
<path d="M9128 971 c4 -26 2 -29 -17 -24 -27 7 -51 -13 -51 -42 0 -32 18 -43
70 -43 25 0 39 2 33 5 -9 3 -13 27 -13 69 0 46 -4 64 -13 64 -9 0 -12 -9 -9
-29z m-3 -66 c0 -23 -4 -30 -20 -30 -21 0 -31 25 -21 51 11 28 41 12 41 -21z"/>
<path d="M9435 978 c8 -13 15 -41 15 -63 0 -22 -7 -50 -15 -63 -13 -17 -13
-21 -2 -16 18 7 37 47 37 79 0 32 -19 72 -37 79 -11 5 -11 1 2 -16z"/>
<path d="M9678 971 c4 -26 2 -29 -17 -24 -27 7 -51 -13 -51 -42 0 -32 18 -43
70 -43 25 0 39 2 33 5 -9 3 -13 27 -13 69 0 46 -4 64 -13 64 -9 0 -12 -9 -9
-29z m-3 -66 c0 -23 -4 -30 -20 -30 -21 0 -31 25 -21 51 11 28 41 12 41 -21z"/>
<path d="M7540 980 c0 -5 5 -10 10 -10 6 0 10 5 10 10 0 6 -4 10 -10 10 -5 0
-10 -4 -10 -10z"/>
<path d="M9190 980 c0 -5 5 -10 10 -10 6 0 10 5 10 10 0 6 -4 10 -10 10 -5 0
-10 -4 -10 -10z"/>
<path d="M9740 980 c0 -5 5 -10 10 -10 6 0 10 5 10 10 0 6 -4 10 -10 10 -5 0
-10 -4 -10 -10z"/>
<path d="M7378 963 c-2 -10 -1 -36 2 -58 4 -31 9 -40 24 -40 11 0 20 6 22 13
1 7 0 8 -3 2 -10 -21 -23 -8 -23 24 0 24 5 36 18 39 16 4 16 5 0 6 -10 0 -18
8 -18 16 0 21 -17 19 -22 -2z"/>
<path d="M7458 963 c-2 -10 -1 -36 2 -58 4 -31 9 -40 24 -40 11 0 20 6 22 13
1 7 0 8 -3 2 -10 -21 -23 -8 -23 24 0 24 5 36 18 39 16 4 16 5 0 6 -10 0 -18
8 -18 16 0 21 -17 19 -22 -2z"/>
<path d="M8758 963 c-2 -10 -1 -36 2 -58 4 -31 9 -40 24 -40 11 0 20 6 22 13
1 7 0 8 -3 2 -10 -21 -23 -8 -23 24 0 24 5 36 18 39 16 4 16 5 0 6 -10 0 -18
8 -18 16 0 21 -17 19 -22 -2z"/>
<path d="M9348 963 c-2 -10 -1 -36 2 -58 4 -31 9 -40 24 -40 11 0 20 6 22 13
1 7 0 8 -3 2 -10 -21 -23 -8 -23 24 0 24 5 36 18 39 16 4 16 5 0 6 -10 0 -18
8 -18 16 0 21 -17 19 -22 -2z"/>
<path d="M9898 963 c-2 -10 -1 -36 2 -58 4 -31 9 -40 24 -40 11 0 20 6 22 13
1 7 0 8 -3 2 -10 -21 -23 -8 -23 24 0 24 5 36 18 39 16 4 16 5 0 6 -10 0 -18
8 -18 16 0 21 -17 19 -22 -2z"/>
<path d="M6852 938 c-28 -28 -7 -78 33 -78 27 0 45 18 45 45 0 27 -18 45 -45
45 -12 0 -26 -5 -33 -12z m53 -33 c0 -23 -4 -30 -20 -30 -21 0 -31 25 -21 51
11 28 41 12 41 -21z"/>
<path d="M6955 904 c0 -40 2 -44 25 -44 17 0 21 3 12 9 -20 12 -11 65 12 69
16 3 18 -1 14 -37 -3 -38 -2 -41 22 -41 15 0 20 3 13 8 -6 4 -13 23 -15 42 -3
33 -5 35 -43 37 l-40 2 0 -45z"/>
<path d="M7167 944 c-15 -15 -6 -32 23 -43 17 -5 30 -15 30 -20 0 -15 -33 -14
-49 2 -11 10 -13 9 -9 -3 6 -19 45 -25 63 -10 18 15 11 28 -21 40 -25 10 -33
30 -11 30 7 0 19 -6 26 -12 11 -11 13 -10 9 2 -5 16 -49 26 -61 14z"/>
<path d="M7272 938 c-7 -7 -12 -21 -12 -33 0 -43 54 -62 81 -28 13 15 12 15
-7 3 -22 -14 -54 -8 -54 10 0 5 16 10 35 10 22 0 35 5 35 13 0 19 -21 37 -45
37 -12 0 -26 -5 -33 -12z m56 -15 c2 -8 -6 -13 -22 -13 -25 0 -33 10 -19 24
10 10 36 3 41 -11z"/>
<path d="M7535 905 c0 -42 2 -45 25 -44 14 0 19 3 13 6 -8 2 -13 22 -13 44 0
25 -5 39 -12 39 -9 0 -13 -16 -13 -45z"/>
<path d="M7595 904 c0 -40 2 -44 25 -44 17 0 21 3 12 9 -20 12 -11 65 12 69
16 3 18 -1 14 -37 -3 -38 -2 -41 22 -41 15 0 20 3 13 8 -6 4 -13 23 -15 42 -3
33 -5 35 -43 37 l-40 2 0 -45z"/>
<path d="M7721 937 c-29 -29 0 -84 39 -74 13 3 20 0 20 -9 0 -21 -28 -28 -47
-13 -14 12 -16 12 -11 -1 6 -19 45 -25 64 -10 8 8 14 31 14 60 0 30 5 50 13
53 6 2 -9 5 -34 5 -26 0 -52 -5 -58 -11z m54 -32 c0 -23 -4 -30 -20 -30 -21 0
-31 25 -21 51 11 28 41 12 41 -21z"/>
<path d="M7837 944 c-15 -15 -6 -32 23 -43 17 -5 30 -15 30 -20 0 -15 -33 -14
-49 2 -11 10 -13 9 -9 -3 6 -19 45 -25 63 -10 18 15 11 28 -21 40 -25 10 -33
30 -11 30 7 0 19 -6 26 -12 11 -11 13 -10 9 2 -5 16 -49 26 -61 14z"/>
<path d="M8027 944 c-15 -15 -6 -32 23 -43 17 -5 30 -15 30 -20 0 -15 -33 -14
-49 2 -11 10 -13 9 -9 -3 6 -19 45 -25 63 -10 18 15 11 28 -21 40 -25 10 -33
30 -11 30 7 0 19 -6 26 -12 11 -11 13 -10 9 2 -5 16 -49 26 -61 14z"/>
<path d="M8135 939 c-4 -6 -4 -13 -1 -16 3 -4 6 -1 6 5 0 17 37 15 43 -2 4
-11 -3 -16 -26 -18 -24 -2 -32 -8 -32 -23 0 -17 7 -20 50 -22 28 -1 44 0 38 3
-7 3 -13 21 -13 39 0 21 -6 35 -16 39 -23 9 -42 7 -49 -5z m53 -51 c-7 -20
-48 -23 -48 -4 0 11 9 16 26 16 16 0 24 -5 22 -12z"/>
<path d="M8244 905 c12 -24 25 -44 29 -45 4 0 15 17 24 38 8 20 20 40 27 44 6
5 1 8 -12 8 -13 0 -20 -4 -17 -10 3 -5 0 -22 -8 -36 l-14 -27 -11 31 c-6 17
-8 33 -5 36 4 3 -3 6 -14 6 -20 0 -20 0 1 -45z"/>
<path d="M8352 938 c-7 -7 -12 -21 -12 -33 0 -43 54 -62 81 -28 13 15 12 15
-7 3 -22 -14 -54 -8 -54 10 0 5 16 10 35 10 22 0 35 5 35 13 0 19 -21 37 -45
37 -12 0 -26 -5 -33 -12z m56 -15 c2 -8 -6 -13 -22 -13 -25 0 -33 10 -19 24
10 10 36 3 41 -11z"/>
<path d="M8655 939 c-4 -6 -4 -13 -1 -16 3 -4 6 -1 6 5 0 17 37 15 43 -2 4
-11 -3 -16 -26 -18 -24 -2 -32 -8 -32 -23 0 -17 7 -20 50 -22 28 -1 44 0 38 3
-7 3 -13 21 -13 39 0 21 -6 35 -16 39 -23 9 -42 7 -49 -5z m53 -51 c-7 -20
-48 -23 -48 -4 0 11 9 16 26 16 16 0 24 -5 22 -12z"/>
<path d="M8845 939 c-4 -6 -4 -13 -1 -16 3 -4 6 -1 6 5 0 17 37 15 43 -2 4
-11 -3 -16 -26 -18 -24 -2 -32 -8 -32 -23 0 -17 7 -20 50 -22 28 -1 44 0 38 3
-7 3 -13 21 -13 39 0 21 -6 35 -16 39 -23 9 -42 7 -49 -5z m53 -51 c-7 -20
-48 -23 -48 -4 0 11 9 16 26 16 16 0 24 -5 22 -12z"/>
<path d="M9185 905 c0 -42 2 -45 25 -44 14 0 19 3 13 6 -8 2 -13 22 -13 44 0
25 -5 39 -12 39 -9 0 -13 -16 -13 -45z"/>
<path d="M9252 938 c-15 -15 -16 -50 0 -66 17 -17 53 -15 68 3 14 17 0 21 -17
4 -20 -20 -45 -2 -41 28 3 31 34 44 50 21 8 -10 9 -10 5 2 -5 19 -48 25 -65 8z"/>
<path d="M9735 905 c0 -42 2 -45 25 -44 14 0 19 3 13 6 -8 2 -13 22 -13 44 0
25 -5 39 -12 39 -9 0 -13 -16 -13 -45z"/>
<path d="M9802 938 c-15 -15 -16 -50 0 -66 17 -17 53 -15 68 3 14 17 0 21 -17
4 -20 -20 -45 -2 -41 28 3 31 34 44 50 21 8 -10 9 -10 5 2 -5 19 -48 25 -65 8z"/>
<path d="M8950 930 c0 -5 5 -10 10 -10 6 0 10 5 10 10 0 6 -4 10 -10 10 -5 0
-10 -4 -10 -10z"/>
<path d="M9500 930 c0 -5 5 -10 10 -10 6 0 10 5 10 10 0 6 -4 10 -10 10 -5 0
-10 -4 -10 -10z"/>
<path d="M8950 870 c0 -5 5 -10 10 -10 6 0 10 5 10 10 0 6 -4 10 -10 10 -5 0
-10 -4 -10 -10z"/>
<path d="M9500 870 c0 -5 5 -10 10 -10 6 0 10 5 10 10 0 6 -4 10 -10 10 -5 0
-10 -4 -10 -10z"/>
<path d="M7083 823 c15 -2 39 -2 55 0 15 2 2 4 -28 4 -30 0 -43 -2 -27 -4z"/>
<path d="M7943 823 c15 -2 39 -2 55 0 15 2 2 4 -28 4 -30 0 -43 -2 -27 -4z"/>
<path d="M10310 1230 l0 -480 905 0 905 0 0 480 0 480 -905 0 -905 0 0 -480z
m1795 320 l0 -145 -892 -3 -893 -2 0 150 0 150 893 -2 892 -3 0 -145z m5 -320
l0 -160 -895 0 -895 0 0 160 0 160 895 0 895 0 0 -160z m0 -315 l0 -145 -895
0 -895 0 0 145 0 145 895 0 895 0 0 -145z"/>
<path d="M10453 1633 c-7 -2 -13 -16 -13 -29 0 -18 9 -28 38 -41 20 -10 37
-25 37 -33 0 -23 -46 -25 -63 -3 -13 17 -14 17 -10 -2 4 -27 59 -33 82 -9 23
22 16 35 -28 59 -21 11 -38 23 -37 28 0 4 1 12 1 17 0 16 32 12 52 -7 16 -14
18 -14 18 -1 0 24 -43 35 -77 21z"/>
<path d="M10925 1570 c0 -68 1 -70 25 -69 14 0 19 3 13 6 -9 3 -13 27 -13 69
0 45 -4 64 -12 64 -9 0 -13 -21 -13 -70z"/>
<path d="M11129 1613 c-24 -67 -33 -89 -42 -100 -7 -10 -3 -13 14 -13 15 0 19
3 12 8 -20 13 2 34 33 30 20 -2 29 -8 28 -20 -1 -13 6 -18 25 -18 14 0 21 4
15 8 -6 4 -22 35 -34 70 -12 34 -27 62 -32 62 -4 0 -13 -12 -19 -27z m19 -61
c-28 -5 -31 1 -16 33 l12 28 12 -29 c11 -26 10 -29 -8 -32z"/>
<path d="M11408 1634 c7 -4 12 -27 12 -64 0 -37 -5 -60 -12 -63 -7 -3 3 -5 22
-5 19 0 29 2 23 5 -7 2 -13 15 -13 28 0 18 6 24 26 27 35 4 53 31 38 56 -8 12
-26 18 -60 19 -27 1 -43 0 -36 -3z m77 -34 c0 -18 -6 -26 -22 -28 -20 -3 -23
1 -23 28 0 27 3 31 23 28 16 -2 22 -10 22 -28z"/>
<path d="M11535 1570 c0 -68 1 -70 25 -69 14 0 19 3 13 6 -9 3 -13 27 -13 69
0 45 -4 64 -12 64 -9 0 -13 -21 -13 -70z"/>
<path d="M10570 1620 c0 -5 5 -10 10 -10 6 0 10 5 10 10 0 6 -4 10 -10 10 -5
0 -10 -4 -10 -10z"/>
<path d="M11350 1620 c0 -5 5 -10 10 -10 6 0 10 5 10 10 0 6 -4 10 -10 10 -5
0 -10 -4 -10 -10z"/>
<path d="M11840 1620 c0 -5 5 -10 10 -10 6 0 10 5 10 10 0 6 -4 10 -10 10 -5
0 -10 -4 -10 -10z"/>
<path d="M10565 1545 c0 -42 2 -45 25 -44 14 0 19 3 13 6 -8 2 -13 22 -13 44
0 25 -5 39 -12 39 -9 0 -13 -16 -13 -45z"/>
<path d="M10625 1544 c0 -40 2 -44 25 -44 17 0 21 3 12 9 -20 12 -11 65 12 69
16 3 18 -1 14 -37 -3 -32 0 -41 12 -41 11 0 15 11 15 37 0 29 4 38 19 41 16 3
18 -1 14 -37 -3 -38 -2 -41 22 -41 15 0 20 3 13 8 -6 4 -13 23 -15 42 l-3 35
-70 1 -70 2 0 -44z"/>
<path d="M10805 1524 c0 -62 1 -64 25 -63 14 0 19 3 13 6 -7 2 -13 13 -13 23
0 13 5 17 20 13 26 -7 50 13 50 42 0 30 -18 43 -60 43 l-35 0 0 -64z m70 21
c0 -23 -4 -30 -20 -30 -21 0 -31 25 -21 51 11 28 41 12 41 -21z"/>
<path d="M10992 1578 c-7 -7 -12 -21 -12 -33 0 -43 54 -62 81 -28 13 15 12 15
-7 3 -22 -14 -54 -8 -54 10 0 5 16 10 35 10 22 0 35 5 35 13 0 19 -21 37 -45
37 -12 0 -26 -5 -33 -12z m56 -15 c2 -8 -6 -13 -22 -13 -25 0 -33 10 -19 24
10 10 36 3 41 -11z"/>
<path d="M11225 1524 c0 -62 1 -64 25 -63 14 0 19 3 13 6 -7 2 -13 13 -13 23
0 13 5 17 20 13 26 -7 50 13 50 42 0 30 -18 43 -60 43 l-35 0 0 -64z m70 21
c0 -23 -4 -30 -20 -30 -21 0 -31 25 -21 51 11 28 41 12 41 -21z"/>
<path d="M11345 1545 c0 -42 2 -45 25 -44 14 0 19 3 13 6 -8 2 -13 22 -13 44
0 25 -5 39 -12 39 -9 0 -13 -16 -13 -45z"/>
<path d="M11599 1548 l6 -43 50 -2 c28 0 44 1 38 4 -8 3 -13 22 -13 44 0 24
-5 39 -12 39 -8 0 -13 -14 -13 -37 0 -28 -5 -38 -17 -41 -15 -3 -18 4 -18 37
0 27 -4 41 -13 41 -10 0 -12 -11 -8 -42z"/>
<path d="M11721 1577 c-29 -29 0 -84 39 -74 13 3 20 0 20 -9 0 -21 -28 -28
-47 -13 -14 12 -16 12 -11 -1 6 -19 45 -25 64 -10 8 8 14 31 14 60 0 30 5 50
13 53 6 2 -9 5 -34 5 -26 0 -52 -5 -58 -11z m54 -32 c0 -23 -4 -30 -20 -30
-21 0 -31 25 -21 51 11 28 41 12 41 -21z"/>
<path d="M11835 1545 c0 -42 2 -45 25 -44 14 0 19 3 13 6 -8 2 -13 22 -13 44
0 25 -5 39 -12 39 -9 0 -13 -16 -13 -45z"/>
<path d="M11895 1544 c0 -40 2 -44 25 -44 17 0 21 3 12 9 -20 12 -11 65 12 69
16 3 18 -1 14 -37 -3 -38 -2 -41 22 -41 15 0 20 3 13 8 -6 4 -13 23 -15 42 -3
33 -5 35 -43 37 l-40 2 0 -45z"/>
<path d="M12350 1230 l0 -480 860 0 860 0 0 480 0 480 -860 0 -860 0 0 -480z
m1710 320 l0 -150 -845 0 -845 0 0 150 0 150 845 0 845 0 0 -150z m0 -320 l0
-160 -845 0 -845 0 0 160 0 160 845 0 845 0 0 -160z m0 -315 l0 -145 -845 0
-845 0 0 145 0 145 845 0 845 0 0 -145z"/>
<path d="M12471 1623 c0 -11 3 -13 6 -5 2 6 14 12 25 12 18 0 19 -6 16 -65 -3
-64 -3 -65 22 -64 14 0 19 3 13 6 -9 3 -13 26 -13 64 0 51 2 59 19 59 11 0 22
-6 24 -12 3 -8 6 -6 6 5 1 14 -8 17 -59 17 -51 0 -60 -3 -59 -17z"/>
<path d="M13005 1570 c0 -68 1 -70 25 -69 14 0 19 3 13 6 -9 3 -13 27 -13 69
0 45 -4 64 -12 64 -9 0 -13 -21 -13 -70z"/>
<path d="M13368 1634 c7 -4 12 -27 12 -64 0 -37 -5 -60 -12 -63 -7 -3 3 -5 22
-5 19 0 29 2 23 5 -7 2 -13 15 -13 28 0 18 6 24 26 27 35 4 53 31 38 56 -8 12
-26 18 -60 19 -27 1 -43 0 -36 -3z m77 -34 c0 -18 -6 -26 -22 -28 -20 -3 -23
1 -23 28 0 27 3 31 23 28 16 -2 22 -10 22 -28z"/>
<path d="M13495 1570 c0 -68 1 -70 25 -69 14 0 19 3 13 6 -9 3 -13 27 -13 69
0 45 -4 64 -12 64 -9 0 -13 -21 -13 -70z"/>
<path d="M13800 1620 c0 -5 5 -10 10 -10 6 0 10 5 10 10 0 6 -4 10 -10 10 -5
0 -10 -4 -10 -10z"/>
<path d="M13178 1603 c-2 -10 -1 -36 2 -58 4 -31 9 -40 24 -40 11 0 20 6 22
13 1 7 0 8 -3 2 -10 -21 -23 -8 -23 24 0 24 5 36 18 39 16 4 16 5 0 6 -10 0
-18 8 -18 16 0 21 -17 19 -22 -2z"/>
<path d="M12602 1578 c-7 -7 -12 -21 -12 -33 0 -43 54 -62 81 -28 13 15 12 15
-7 3 -22 -14 -54 -8 -54 10 0 5 16 10 35 10 22 0 35 5 35 13 0 19 -21 37 -45
37 -12 0 -26 -5 -33 -12z m56 -15 c2 -8 -6 -13 -22 -13 -25 0 -33 10 -19 24
10 10 36 3 41 -11z"/>
<path d="M12705 1544 c0 -40 2 -44 25 -44 17 0 21 3 12 9 -20 12 -11 65 12 69
16 3 18 -1 14 -37 -3 -32 0 -41 12 -41 11 0 15 11 15 37 0 29 4 38 19 41 16 3
18 -1 14 -37 -3 -38 -2 -41 22 -41 15 0 20 3 13 8 -6 4 -13 23 -15 42 l-3 35
-70 1 -70 2 0 -44z"/>
<path d="M12885 1524 c0 -62 1 -64 25 -63 14 0 19 3 13 6 -7 2 -13 13 -13 23
0 13 5 17 20 13 26 -7 50 13 50 42 0 30 -18 43 -60 43 l-35 0 0 -64z m70 21
c0 -23 -4 -30 -20 -30 -21 0 -31 25 -21 51 11 28 41 12 41 -21z"/>
<path d="M13075 1579 c-4 -6 -4 -13 -1 -16 3 -4 6 -1 6 5 0 17 37 15 43 -2 4
-11 -3 -16 -26 -18 -24 -2 -32 -8 -32 -23 0 -17 7 -20 50 -22 28 -1 44 0 38 3
-7 3 -13 21 -13 39 0 21 -6 35 -16 39 -23 9 -42 7 -49 -5z m53 -51 c-7 -20
-48 -23 -48 -4 0 11 9 16 26 16 16 0 24 -5 22 -12z"/>
<path d="M13262 1578 c-7 -7 -12 -21 -12 -33 0 -43 54 -62 81 -28 13 15 12 15
-7 3 -22 -14 -54 -8 -54 10 0 5 16 10 35 10 22 0 35 5 35 13 0 19 -21 37 -45
37 -12 0 -26 -5 -33 -12z m56 -15 c2 -8 -6 -13 -22 -13 -25 0 -33 10 -19 24
10 10 36 3 41 -11z"/>
<path d="M13559 1548 l6 -43 50 -2 c28 0 44 1 38 4 -8 3 -13 22 -13 44 0 24
-5 39 -12 39 -8 0 -13 -14 -13 -37 0 -28 -5 -38 -17 -41 -15 -3 -18 4 -18 37
0 27 -4 41 -13 41 -10 0 -12 -11 -8 -42z"/>
<path d="M13681 1577 c-29 -29 0 -84 39 -74 13 3 20 0 20 -9 0 -21 -28 -28
-47 -13 -14 12 -16 12 -11 -1 6 -19 45 -25 64 -10 8 8 14 31 14 60 0 30 5 50
13 53 6 2 -9 5 -34 5 -26 0 -52 -5 -58 -11z m54 -32 c0 -23 -4 -30 -20 -30
-21 0 -31 25 -21 51 11 28 41 12 41 -21z"/>
<path d="M13795 1545 c0 -42 2 -45 25 -44 14 0 19 3 13 6 -8 2 -13 22 -13 44
0 25 -5 39 -12 39 -9 0 -13 -16 -13 -45z"/>
<path d="M13855 1544 c0 -40 2 -44 25 -44 17 0 21 3 12 9 -20 12 -11 65 12 69
16 3 18 -1 14 -37 -3 -38 -2 -41 22 -41 15 0 20 3 13 8 -6 4 -13 23 -15 42 -3
33 -5 35 -43 37 l-40 2 0 -45z"/>
</g>
</svg>
