<?xml version="1.0" encoding="UTF-8" standalone="no"?>
<!DOCTYPE svg PUBLIC "-//W3C//DTD SVG 1.1//EN"
 "http://www.w3.org/Graphics/SVG/1.1/DTD/svg11.dtd">
<!-- Generated by graphviz version 2.43.0 (0)
 -->
<!-- Title: classes_OctoPrint&#45;Uptime Pages: 1 -->
<svg width="1422pt" height="308pt"
 viewBox="0.00 0.00 1421.50 307.60" xmlns="http://www.w3.org/2000/svg" xmlns:xlink="http://www.w3.org/1999/xlink">
<g id="graph0" class="graph" transform="scale(1 1) rotate(0) translate(4 303.6)">
<title>classes_OctoPrint&#45;Uptime</title>
<polygon fill="white" stroke="transparent" points="-4,4 -4,-303.6 1417.5,-303.6 1417.5,4 -4,4"/>
<!-- octoprint_uptime.plugin.OctoprintUptimePlugin -->
<g id="node1" class="node">
<title>octoprint_uptime.plugin.OctoprintUptimePlugin</title>
<polygon fill="none" stroke="black" points="509.5,-0.5 509.5,-191.3 869.5,-191.3 869.5,-0.5 509.5,-0.5"/>
<text text-anchor="start" x="517.5" y="-176.1" font-family="Times,serif" font-size="14.00">octoprint_uptime.plugin.OctoprintUptimePlugin</text>
<polyline fill="none" stroke="black" points="509.5,-168.3 869.5,-168.3 "/>
<polyline fill="none" stroke="black" points="509.5,-143.5 869.5,-143.5 "/>
<text text-anchor="start" x="533" y="-128.3" font-family="Times,serif" font-size="14.00">get_assets(): Dict[str, List[str]]</text>
<text text-anchor="start" x="533" y="-113.3" font-family="Times,serif" font-size="14.00">get_settings_defaults(): Dict[str, Any]</text>
<text text-anchor="start" x="533" y="-98.3" font-family="Times,serif" font-size="14.00">get_template_configs(): List[Dict[str, Any]]</text>
<text text-anchor="start" x="533" y="-83.3" font-family="Times,serif" font-size="14.00">get_update_information()</text>
<text text-anchor="start" x="533" y="-68.3" font-family="Times,serif" font-size="14.00">is_api_protected(): bool</text>
<text text-anchor="start" x="533" y="-53.3" font-family="Times,serif" font-size="14.00">is_template_autoescaped()</text>
<text text-anchor="start" x="533" y="-38.3" font-family="Times,serif" font-size="14.00">on_api_get(_request: Any): Any</text>
<text text-anchor="start" x="533" y="-23.3" font-family="Times,serif" font-size="14.00">on_settings_initialized(): None</text>
<text text-anchor="start" x="533" y="-8.3" font-family="Times,serif" font-size="14.00">on_settings_save(data: Dict[str, Any]): None</text>
</g>
<!-- octoprint_uptime.plugin._AssetPluginBase -->
<g id="node2" class="node">
<title>octoprint_uptime.plugin._AssetPluginBase</title>
<polygon fill="none" stroke="black" points="0,-228.3 0,-299.1 319,-299.1 319,-228.3 0,-228.3"/>
<text text-anchor="start" x="8" y="-283.9" font-family="Times,serif" font-size="14.00">octoprint_uptime.plugin._AssetPluginBase</text>
<polyline fill="none" stroke="black" points="0,-276.1 319,-276.1 "/>
<polyline fill="none" stroke="black" points="0,-251.3 319,-251.3 "/>
<text text-anchor="start" x="157" y="-236.1" font-family="Times,serif" font-size="14.00"> </text>
</g>
<!-- octoprint_uptime.plugin.OctoprintUptimePlugin&#45;&gt;octoprint_uptime.plugin._AssetPluginBase -->
<g id="edge1" class="edge">
<title>octoprint_uptime.plugin.OctoprintUptimePlugin&#45;&gt;octoprint_uptime.plugin._AssetPluginBase</title>
<path fill="none" stroke="black" d="M509.33,-153.26C433.53,-176.98 347.38,-203.92 279.54,-225.15"/>
<polygon fill="none" stroke="black" points="278.17,-221.91 269.67,-228.24 280.26,-228.59 278.17,-221.91"/>
</g>
<!-- octoprint_uptime.plugin._SettingsPluginBase -->
<g id="node3" class="node">
<title>octoprint_uptime.plugin._SettingsPluginBase</title>
<polygon fill="none" stroke="black" points="337.5,-228.3 337.5,-299.1 677.5,-299.1 677.5,-228.3 337.5,-228.3"/>
<text text-anchor="start" x="345.5" y="-283.9" font-family="Times,serif" font-size="14.00">octoprint_uptime.plugin._SettingsPluginBase</text>
<polyline fill="none" stroke="black" points="337.5,-276.1 677.5,-276.1 "/>
<polyline fill="none" stroke="black" points="337.5,-251.3 677.5,-251.3 "/>
<text text-anchor="start" x="505" y="-236.1" font-family="Times,serif" font-size="14.00"> </text>
</g>
<!-- octoprint_uptime.plugin.OctoprintUptimePlugin&#45;&gt;octoprint_uptime.plugin._SettingsPluginBase -->
<g id="edge2" class="edge">
<title>octoprint_uptime.plugin.OctoprintUptimePlugin&#45;&gt;octoprint_uptime.plugin._SettingsPluginBase</title>
<path fill="none" stroke="black" d="M585.74,-191.42C574.29,-201.85 563.11,-212.04 552.96,-221.29"/>
<polygon fill="none" stroke="black" points="550.44,-218.85 545.4,-228.17 555.15,-224.02 550.44,-218.85"/>
</g>
<!-- octoprint_uptime.plugin._SimpleApiPluginBase -->
<g id="node4" class="node">
<title>octoprint_uptime.plugin._SimpleApiPluginBase</title>
<polygon fill="none" stroke="black" points="696,-228.3 696,-299.1 1049,-299.1 1049,-228.3 696,-228.3"/>
<text text-anchor="start" x="704" y="-283.9" font-family="Times,serif" font-size="14.00">octoprint_uptime.plugin._SimpleApiPluginBase</text>
<polyline fill="none" stroke="black" points="696,-276.1 1049,-276.1 "/>
<polyline fill="none" stroke="black" points="696,-251.3 1049,-251.3 "/>
<text text-anchor="start" x="870" y="-236.1" font-family="Times,serif" font-size="14.00"> </text>
</g>
<!-- octoprint_uptime.plugin.OctoprintUptimePlugin&#45;&gt;octoprint_uptime.plugin._SimpleApiPluginBase -->
<g id="edge3" class="edge">
<title>octoprint_uptime.plugin.OctoprintUptimePlugin&#45;&gt;octoprint_uptime.plugin._SimpleApiPluginBase</title>
<path fill="none" stroke="black" d="M793.83,-191.42C805.34,-201.85 816.58,-212.04 826.79,-221.29"/>
<polygon fill="none" stroke="black" points="824.63,-224.05 834.39,-228.17 829.33,-218.86 824.63,-224.05"/>
</g>
<!-- octoprint_uptime.plugin._TemplatePluginBase -->
<g id="node5" class="node">
<title>octoprint_uptime.plugin._TemplatePluginBase</title>
<polygon fill="none" stroke="black" points="1067.5,-228.3 1067.5,-299.1 1413.5,-299.1 1413.5,-228.3 1067.5,-228.3"/>
<text text-anchor="start" x="1075.5" y="-283.9" font-family="Times,serif" font-size="14.00">octoprint_uptime.plugin._TemplatePluginBase</text>
<polyline fill="none" stroke="black" points="1067.5,-276.1 1413.5,-276.1 "/>
<polyline fill="none" stroke="black" points="1067.5,-251.3 1413.5,-251.3 "/>
<text text-anchor="start" x="1238" y="-236.1" font-family="Times,serif" font-size="14.00"> </text>
</g>
<!-- octoprint_uptime.plugin.OctoprintUptimePlugin&#45;&gt;octoprint_uptime.plugin._TemplatePluginBase -->
<g id="edge4" class="edge">
<title>octoprint_uptime.plugin.OctoprintUptimePlugin&#45;&gt;octoprint_uptime.plugin._TemplatePluginBase</title>
<path fill="none" stroke="black" d="M869.54,-151.07C950.21,-175.35 1043.35,-203.38 1116.12,-225.27"/>
<polygon fill="none" stroke="black" points="1115.21,-228.65 1125.79,-228.18 1117.22,-221.95 1115.21,-228.65"/>
</g>
</g>
</svg>
