<?xml version="1.0" encoding="utf-8"?>
<svg xmlns="http://www.w3.org/2000/svg" viewBox="0 0 64 64" width="64" height="64" role="img" aria-label="System Uptime">
  <title>OctoPrint Uptime</title>
  <defs>
    <linearGradient id="uptimeGradient" x1="0%" y1="0%" x2="0%" y2="100%">
      <stop offset="0" stop-color="#34d399"/>
      <stop offset="1" stop-color="#06b6d4"/>
    </linearGradient>
    <linearGradient id="accent" x1="0%" y1="0%" x2="100%" y2="0%">
      <stop offset="0" stop-color="#60a5fa"/>
      <stop offset="1" stop-color="#7c3aed"/>
    </linearGradient>
  </defs>
  <circle cx="32" cy="32" r="30" fill="#0f172a" opacity="0.08"/>
  <circle cx="32" cy="32" r="26" fill="url(#uptimeGradient)" stroke="#07385a" stroke-width="1"/>
  <circle cx="32" cy="32" r="20" fill="#fff" opacity="0.95"/>
  <g transform="translate(32 32)" stroke="#0f172a" stroke-opacity="0.6" stroke-width="1.5">
    <g>
      <line x1="0" y1="-18" x2="0" y2="-14"/>
      <line transform="rotate(30)" x1="0" y1="-18" x2="0" y2="-14"/>
      <line transform="rotate(60)" x1="0" y1="-18" x2="0" y2="-14"/>
      <line transform="rotate(90)" x1="0" y1="-18" x2="0" y2="-14"/>
      <line transform="rotate(120)" x1="0" y1="-18" x2="0" y2="-14"/>
      <line transform="rotate(150)" x1="0" y1="-18" x2="0" y2="-14"/>
      <line transform="rotate(180)" x1="0" y1="-18" x2="0" y2="-14"/>
      <line transform="rotate(210)" x1="0" y1="-18" x2="0" y2="-14"/>
      <line transform="rotate(240)" x1="0" y1="-18" x2="0" y2="-14"/>
      <line transform="rotate(270)" x1="0" y1="-18" x2="0" y2="-14"/>
      <line transform="rotate(300)" x1="0" y1="-18" x2="0" y2="-14"/>
      <line transform="rotate(330)" x1="0" y1="-18" x2="0" y2="-14"/>
    </g>
  </g>
  <g transform="translate(32 32)">
    <rect x="-2.2" y="-6" width="4.4" height="12" rx="2" fill="#0f172a" opacity="0.9"/>
    <rect x="-1.1" y="-12" width="2.2" height="18" rx="1.2" fill="url(#accent)" transform="rotate(30)"/>
    <circle cx="0" cy="0" r="2.6" fill="#0f172a"/>
  </g>
  <circle cx="48" cy="17.483" r="6" fill="#fff" stroke="#e6edf3" stroke-width="0.8"/>
  <g transform="matrix(1, 0, 0, 1, 48.056339, 20.366198)" aria-hidden="true">
    <path d="M -4.2 0 A 5 5 0 1 1 4.2 -0.2" fill="none" stroke="url(#accent)" stroke-width="1.6" stroke-linecap="round" stroke-linejoin="round"/>
    <path d="M 3.686 -1.724 L 0.996 1.507 L 5.031 0.968 L 3.686 -1.724 Z" fill="url(#accent)" style=""/>
  </g>
  <text x="48.011" y="19.751" font-family="Inter, Arial, sans-serif" font-size="7" text-anchor="middle" fill="#0f172a" style="white-space: pre; font-size: 7px;" transform="matrix(0.752896, 0, 0, 0.827907, 11.936534, 3.073396)">UP</text>
</svg>
